<svg width="434.278" height="121.826" viewBox="0 0 434.278 121.826" xmlns="http://www.w3.org/2000/svg"><g id="svgGroup" stroke-linecap="round" fill-rule="evenodd" font-size="9pt" stroke="#000" stroke-width="0.7mm" fill="#000" style="stroke:#000;stroke-width:0.7mm;fill:#000"><path d="M 350.699 26.517 A 1.938 1.938 0 0 0 351.172 25.244 Q 351.172 25.196 351.099 24.317 A 10.814 10.814 0 0 0 351.092 24.235 Q 351.013 23.373 350.757 22.022 A 22.663 22.663 0 0 0 350.615 21.334 Q 350.357 20.171 349.927 18.75 A 23.013 23.013 0 0 0 349.402 17.218 A 28.351 28.351 0 0 0 348.389 14.893 Q 347.217 12.549 345.191 9.937 A 20.214 20.214 0 0 0 342.941 7.498 A 26.318 26.318 0 0 0 339.917 5.103 A 21.839 21.839 0 0 0 339.89 5.084 Q 336.651 2.875 332.032 1.441 A 26.256 26.256 0 0 0 331.02 1.149 Q 328.789 0.553 326.201 0.266 A 46.435 46.435 0 0 0 321.094 0 A 43.384 43.384 0 0 0 308.277 1.929 Q 302.002 3.858 296.363 7.251 Q 290.723 10.645 285.962 15.283 A 55.386 55.386 0 0 0 277.735 25.415 A 50.622 50.622 0 0 0 272.315 36.988 Q 270.362 43.067 270.362 49.317 Q 270.362 55.225 272.022 59.766 A 24.049 24.049 0 0 0 272.831 61.715 A 19.832 19.832 0 0 0 276.758 67.383 A 19.715 19.715 0 0 0 276.952 67.574 A 20.183 20.183 0 0 0 284.131 72.046 Q 288.428 73.633 293.701 73.633 A 37.938 37.938 0 0 0 294.428 73.626 A 40.367 40.367 0 0 0 305.396 71.851 A 43.541 43.541 0 0 0 307.249 71.244 A 47.586 47.586 0 0 0 316.846 66.553 A 54.505 54.505 0 0 0 320.28 64.194 A 62.968 62.968 0 0 0 327.515 57.862 A 63.044 63.044 0 0 0 330.621 54.469 A 72.633 72.633 0 0 0 336.866 45.899 A 139.26 139.26 0 0 0 336.894 47.014 A 152.808 152.808 0 0 0 337.354 55.054 Q 337.744 59.766 338.379 64.649 A 31.971 31.971 0 0 0 337.725 64.993 Q 335.696 66.088 333.325 67.725 Q 330.567 69.629 327.735 72.119 A 64.215 64.215 0 0 0 327.381 72.432 A 69.778 69.778 0 0 0 322.217 77.564 A 43.921 43.921 0 0 0 317.456 83.838 A 34.321 34.321 0 0 0 314.136 90.723 A 21.774 21.774 0 0 0 312.891 97.949 Q 312.891 100.537 313.77 102.71 A 12.64 12.64 0 0 0 313.84 102.879 A 11.052 11.052 0 0 0 316.211 106.446 A 11.156 11.156 0 0 0 319.922 108.887 A 11.369 11.369 0 0 0 321.374 109.369 A 12.841 12.841 0 0 0 324.61 109.766 A 17.624 17.624 0 0 0 327.512 109.536 A 13.074 13.074 0 0 0 333.252 107.154 A 17.032 17.032 0 0 0 336.153 104.41 A 20.304 20.304 0 0 0 338.892 100.098 A 32.528 32.528 0 0 0 340.717 95.301 A 43.139 43.139 0 0 0 341.944 89.795 A 71.56 71.56 0 0 0 342.305 87.204 A 80.811 80.811 0 0 0 342.871 77.49 A 99.499 99.499 0 0 0 342.725 72.071 Q 342.578 69.385 342.334 66.748 Q 344.147 65.842 345.464 65.27 A 28.055 28.055 0 0 1 346.558 64.82 A 457.68 457.68 0 0 0 346.935 64.674 Q 347.982 64.27 348.195 64.181 A 0.955 0.955 0 0 0 348.242 64.16 A 2.242 2.242 0 0 0 348.324 64.132 A 1.823 1.823 0 0 0 349.17 63.501 A 1.725 1.725 0 0 0 349.512 62.451 A 2.324 2.324 0 0 0 349.507 62.292 A 1.698 1.698 0 0 0 348.95 61.109 A 1.862 1.862 0 0 0 347.657 60.596 Q 347.559 60.596 347.412 60.572 A 0.202 0.202 0 0 0 347.398 60.57 Q 347.241 60.555 346.729 60.718 Q 346.326 60.846 345.58 61.139 A 57.741 57.741 0 0 0 345.044 61.353 A 20.854 20.854 0 0 0 344.613 61.533 Q 343.863 61.856 342.815 62.364 A 89.437 89.437 0 0 0 341.846 62.842 A 177.779 177.779 0 0 1 341.385 59.043 A 147.219 147.219 0 0 1 340.845 53.076 A 140.356 140.356 0 0 1 340.607 48.67 A 107.777 107.777 0 0 1 340.528 44.629 A 88.171 88.171 0 0 1 340.548 42.7 A 71.901 71.901 0 0 1 340.674 39.697 A 58.694 58.694 0 0 0 341.427 38.207 Q 342.578 35.842 343.213 33.936 A 26.717 26.717 0 0 0 343.23 33.885 Q 344.043 31.429 344.043 29.834 A 4.699 4.699 0 0 0 343.945 28.851 A 3.274 3.274 0 0 0 343.286 27.442 A 3.109 3.109 0 0 0 343.135 27.269 A 2.294 2.294 0 0 0 341.407 26.514 A 2.306 2.306 0 0 0 340.731 26.612 Q 339.627 26.948 338.889 28.436 A 8.703 8.703 0 0 0 338.404 29.663 Q 337.7 31.878 337.298 35.48 A 72.593 72.593 0 0 0 337.012 38.77 Q 333.496 45.069 329.053 50.757 A 58.803 58.803 0 0 1 319.214 60.718 Q 313.819 64.99 307.495 67.505 A 34.476 34.476 0 0 1 304.887 68.423 A 37.19 37.19 0 0 1 293.897 70.02 A 29.449 29.449 0 0 1 292.082 69.965 A 25.085 25.085 0 0 1 286.06 68.872 A 16.44 16.44 0 0 1 279.737 65.235 A 15.189 15.189 0 0 1 277.443 62.534 A 18.806 18.806 0 0 1 275.537 58.814 Q 274.024 54.883 274.024 49.365 Q 274.024 43.262 275.952 37.5 A 46.404 46.404 0 0 1 281.226 26.66 Q 284.571 21.582 289.112 17.359 Q 293.653 13.135 298.877 10.083 A 49.36 49.36 0 0 1 309.79 5.347 Q 315.479 3.662 321.094 3.662 Q 324.665 3.662 327.633 4.157 A 25.393 25.393 0 0 1 331.885 5.225 A 34.741 34.741 0 0 1 332.434 5.423 Q 334.336 6.128 335.944 6.983 A 20.683 20.683 0 0 1 339.234 9.131 A 22.846 22.846 0 0 1 341.161 10.869 A 18.074 18.074 0 0 1 343.799 14.234 Q 345.459 16.992 346.265 19.409 A 29.933 29.933 0 0 1 346.716 20.88 Q 346.909 21.577 347.037 22.196 A 12.998 12.998 0 0 1 347.241 23.487 Q 347.381 24.842 347.439 25.221 A 1.517 1.517 0 0 0 347.461 25.342 A 2.611 2.611 0 0 0 347.532 25.715 A 1.919 1.919 0 0 0 348.096 26.66 A 1.825 1.825 0 0 0 349.366 27.149 A 1.74 1.74 0 0 0 349.998 27.037 A 1.678 1.678 0 0 0 350.659 26.563 A 2.471 2.471 0 0 0 350.699 26.517 Z M 110.681 57.975 A 31.427 31.427 0 0 0 113.574 54.053 A 1.78 1.78 0 0 0 113.66 53.893 A 1.436 1.436 0 0 0 113.77 53.565 A 2.484 2.484 0 0 0 113.819 53.076 A 1.772 1.772 0 0 0 113.689 52.403 A 2.045 2.045 0 0 0 113.33 51.831 A 1.563 1.563 0 0 0 112.608 51.355 A 1.977 1.977 0 0 0 112.012 51.27 Q 111.524 51.27 111.084 51.489 A 1.572 1.572 0 0 0 110.401 52.149 A 28.844 28.844 0 0 1 107.846 55.61 A 39.322 39.322 0 0 1 104.737 58.838 A 40.7 40.7 0 0 1 102.829 60.506 A 46.268 46.268 0 0 1 96.558 64.82 Q 91.944 67.481 86.524 69.116 Q 81.104 70.752 75.244 70.752 A 52.552 52.552 0 0 1 66.407 69.995 Q 61.963 69.238 57.886 67.652 A 37.011 37.011 0 0 1 50.269 63.623 A 28.211 28.211 0 0 1 44.092 57.837 A 24.426 24.426 0 0 1 43.258 56.714 A 26.372 26.372 0 0 1 39.966 50.196 A 25.876 25.876 0 0 1 38.897 45.942 A 32.831 32.831 0 0 1 38.477 40.576 A 35.413 35.413 0 0 1 38.591 37.705 A 29.519 29.519 0 0 1 40.308 29.785 Q 42.139 24.854 45.215 20.874 A 35.354 35.354 0 0 1 52.368 13.916 Q 56.446 10.938 60.938 8.936 A 46.609 46.609 0 0 1 70.044 5.933 A 47.145 47.145 0 0 1 72.888 5.405 A 39.357 39.357 0 0 1 78.858 4.932 A 48.608 48.608 0 0 1 81.6 5.008 A 41.719 41.719 0 0 1 89.331 6.153 A 35.87 35.87 0 0 1 93.113 7.31 A 27.775 27.775 0 0 1 97.901 9.595 A 21.671 21.671 0 0 1 99.688 10.802 A 17.669 17.669 0 0 1 103.711 14.966 A 12.08 12.08 0 0 1 105.86 21.924 A 13.819 13.819 0 0 1 104.151 28.565 A 17.727 17.727 0 0 1 103.404 29.824 A 19.071 19.071 0 0 1 99.463 34.18 A 21.901 21.901 0 0 1 97.401 35.677 A 25.081 25.081 0 0 1 92.505 38.086 A 23.018 23.018 0 0 1 90.865 38.621 A 24.975 24.975 0 0 1 83.985 39.551 A 23.7 23.7 0 0 1 79.102 39.038 A 16.132 16.132 0 0 1 78.648 38.936 A 14.186 14.186 0 0 1 74.658 37.329 A 9.869 9.869 0 0 1 71.411 34.229 A 7.393 7.393 0 0 1 70.384 31.714 A 10.311 10.311 0 0 1 70.166 29.541 Q 70.166 27.783 70.728 26.319 Q 71.289 24.854 71.973 23.804 A 17.252 17.252 0 0 1 72.339 23.263 Q 72.817 22.587 73.242 22.144 A 31.872 31.872 0 0 1 73.406 21.975 Q 73.747 21.625 73.872 21.523 A 0.337 0.337 0 0 1 73.926 21.485 A 1.96 1.96 0 0 0 74.383 20.868 A 1.99 1.99 0 0 0 74.561 20.02 Q 74.561 19.238 74.024 18.75 A 1.824 1.824 0 0 0 73.405 18.376 A 2.068 2.068 0 0 0 72.705 18.262 A 2.445 2.445 0 0 0 72.515 18.269 A 2.857 2.857 0 0 0 72.095 18.335 A 1.121 1.121 0 0 0 71.904 18.398 A 1.183 1.183 0 0 0 71.533 18.653 L 70.63 19.556 A 8.586 8.586 0 0 0 70.171 20.055 Q 69.571 20.758 68.921 21.778 A 13.575 13.575 0 0 0 68.802 21.968 Q 68.386 22.644 68.003 23.441 A 22.663 22.663 0 0 0 67.261 25.171 A 10.969 10.969 0 0 0 66.769 26.855 A 13.133 13.133 0 0 0 66.504 29.541 A 14.743 14.743 0 0 0 66.504 29.631 A 12.891 12.891 0 0 0 67.627 34.912 A 12.007 12.007 0 0 0 67.698 35.067 A 12.245 12.245 0 0 0 70.948 39.258 A 13.971 13.971 0 0 0 73.456 40.935 A 18.364 18.364 0 0 0 76.416 42.163 Q 78.154 42.721 80.168 42.982 A 29.29 29.29 0 0 0 83.936 43.213 A 32.283 32.283 0 0 0 84.429 43.209 A 28.509 28.509 0 0 0 93.872 41.504 A 30.766 30.766 0 0 0 95.441 40.881 A 26.388 26.388 0 0 0 102.027 36.865 A 22.008 22.008 0 0 0 107.52 30.054 A 17.605 17.605 0 0 0 109.522 21.875 Q 109.522 17.237 107.105 13.452 A 20.095 20.095 0 0 0 105.048 10.765 A 23.086 23.086 0 0 0 100.537 6.958 A 29.738 29.738 0 0 0 96.602 4.804 A 37.055 37.055 0 0 0 90.845 2.759 Q 85.303 1.27 79.004 1.27 A 47.543 47.543 0 0 0 67.823 2.588 Q 62.354 3.906 57.422 6.372 A 45.423 45.423 0 0 0 48.34 12.354 Q 44.19 15.869 41.162 20.239 A 36.702 36.702 0 0 0 36.45 29.737 A 32.694 32.694 0 0 0 36.198 30.541 A 34.716 34.716 0 0 0 34.766 40.576 Q 34.766 46.436 36.402 51.221 A 33.439 33.439 0 0 0 36.665 51.962 A 29.499 29.499 0 0 0 40.918 59.766 A 31.344 31.344 0 0 0 47.681 66.284 A 40.229 40.229 0 0 0 56.079 70.85 Q 60.596 72.656 65.503 73.535 Q 70.41 74.414 75.342 74.414 A 42.037 42.037 0 0 0 87.549 72.632 Q 93.457 70.85 98.462 67.945 A 54.973 54.973 0 0 0 100.3 66.829 A 48.258 48.258 0 0 0 107.373 61.402 A 42.663 42.663 0 0 0 110.681 57.975 Z M 159.082 71.045 L 159.278 71.045 A 11.089 11.089 0 0 0 163.115 70.391 A 10.358 10.358 0 0 0 164.527 69.751 A 17.071 17.071 0 0 0 168.799 66.431 Q 170.703 64.405 172.217 61.914 A 70.576 70.576 0 0 0 174.137 58.559 A 60.142 60.142 0 0 0 174.903 57.08 A 1.967 1.967 0 0 1 175.279 56.519 A 1.794 1.794 0 0 1 175.611 56.25 Q 176.074 55.957 176.612 55.957 Q 177.442 55.957 177.93 56.543 A 2.202 2.202 0 0 1 178.276 57.104 A 1.823 1.823 0 0 1 178.418 57.813 A 1.839 1.839 0 0 1 178.272 58.545 Q 177.002 61.377 175.244 64.234 A 26.926 26.926 0 0 1 171.143 69.385 Q 168.799 71.68 165.869 73.12 A 14.186 14.186 0 0 1 160.474 74.526 A 16.945 16.945 0 0 1 159.375 74.561 Q 156.787 74.561 154.346 73.755 A 11.657 11.657 0 0 1 150.049 71.24 A 7.524 7.524 0 0 1 149.219 70.486 A 6.436 6.436 0 0 1 148.877 70.093 Q 148.389 69.483 148.096 68.946 Q 147.998 68.848 147.998 68.75 A 1.749 1.749 0 0 1 147.757 68.226 A 1.572 1.572 0 0 1 147.705 67.822 A 1.772 1.772 0 0 1 148.042 66.786 A 2.273 2.273 0 0 1 148.145 66.651 Q 148.183 66.574 148.221 66.542 A 0.112 0.112 0 0 1 148.242 66.529 A 0.321 0.321 0 0 0 148.291 66.498 Q 148.313 66.482 148.334 66.461 A 0.538 0.538 0 0 0 148.34 66.455 A 2.024 2.024 0 0 1 148.834 66.122 A 1.687 1.687 0 0 1 149.414 65.967 L 149.561 65.967 Q 149.748 65.967 149.85 65.996 A 0.308 0.308 0 0 1 149.903 66.016 A 0.156 0.156 0 0 1 149.93 66.018 Q 149.945 66.021 149.957 66.027 A 0.072 0.072 0 0 1 149.976 66.04 Q 149.996 66.06 150.033 66.064 A 0.172 0.172 0 0 0 150.049 66.065 A 0.544 0.544 0 0 1 150.171 66.08 Q 150.272 66.103 150.391 66.162 A 0.22 0.22 0 0 0 150.421 66.188 Q 150.438 66.2 150.456 66.206 A 0.102 0.102 0 0 0 150.489 66.211 Q 150.928 66.504 151.221 66.944 Q 151.563 67.53 152.002 68.018 Q 152.393 68.408 152.93 68.726 A 2.296 2.296 0 0 0 153.941 69.035 A 2.806 2.806 0 0 0 154.151 69.043 A 4.369 4.369 0 0 0 155.82 68.701 A 5.728 5.728 0 0 0 156.592 68.311 A 6.754 6.754 0 0 0 158.014 67.156 A 8.804 8.804 0 0 0 158.789 66.211 A 10.196 10.196 0 0 0 159.748 64.541 A 13.785 13.785 0 0 0 160.376 62.891 A 13.255 13.255 0 0 0 160.893 60.347 A 16.885 16.885 0 0 0 160.987 58.545 Q 160.987 56.787 160.62 55.542 A 8.83 8.83 0 0 0 160.298 54.624 Q 160.03 53.986 159.693 53.516 Q 159.215 52.851 158.684 52.487 A 2.84 2.84 0 0 0 158.496 52.368 Q 157.862 52.002 157.276 52.002 A 2.853 2.853 0 0 0 156.003 52.318 Q 155.571 52.531 155.137 52.889 A 6.711 6.711 0 0 0 154.615 53.369 Q 153.272 54.737 151.953 56.836 Q 150.635 58.936 149.341 61.475 A 172.749 172.749 0 0 1 146.729 66.406 A 1417.941 1417.941 0 0 1 146.613 74.134 A 1226.101 1226.101 0 0 1 146.46 81.494 A 344.496 344.496 0 0 1 146.228 88.416 A 274.252 274.252 0 0 1 145.874 94.824 Q 145.459 100.977 144.727 105.957 Q 144.117 110.106 143.134 113.255 A 30.83 30.83 0 0 1 142.725 114.478 A 21.105 21.105 0 0 1 141.737 116.811 Q 141.159 117.963 140.492 118.867 A 10.15 10.15 0 0 1 139.6 119.922 A 6.083 6.083 0 0 1 135.184 121.825 A 7.494 7.494 0 0 1 135.059 121.826 Q 134.361 121.826 133.489 121.584 A 9.402 9.402 0 0 1 133.155 121.485 Q 132.08 121.143 131.153 120.093 Q 130.452 119.3 129.918 117.991 A 13.162 13.162 0 0 1 129.59 117.09 A 10.85 10.85 0 0 1 129.229 115.592 Q 129.092 114.802 129.024 113.87 A 27.489 27.489 0 0 1 128.955 111.865 Q 128.955 107.715 129.981 102.246 A 98.463 98.463 0 0 1 131.572 95.245 A 121.701 121.701 0 0 1 132.886 90.65 A 155.184 155.184 0 0 1 136.408 80.482 A 175.069 175.069 0 0 1 137.354 78.076 Q 139.942 71.631 143.067 65.528 A 229.159 229.159 0 0 1 143.091 62.158 A 221.827 221.827 0 0 0 143.115 59.328 A 202.284 202.284 0 0 0 143.116 58.936 A 2.281 2.281 0 0 1 142.571 59.403 A 1.844 1.844 0 0 1 141.602 59.668 Q 140.772 59.668 140.283 59.082 A 2.202 2.202 0 0 1 139.937 58.521 A 1.823 1.823 0 0 1 139.795 57.813 A 1.828 1.828 0 0 1 139.839 57.424 A 2.484 2.484 0 0 1 139.942 57.08 Q 141.114 54.395 141.748 51.978 A 67.996 67.996 0 0 0 142.18 50.247 Q 142.381 49.389 142.534 48.62 A 36.515 36.515 0 0 0 142.7 47.73 A 41.463 41.463 0 0 0 142.873 46.659 Q 143.016 45.679 143.058 44.984 A 10.678 10.678 0 0 0 143.067 44.824 A 870.149 870.149 0 0 0 143.078 44.572 Q 143.11 43.865 143.115 43.731 A 1.149 1.149 0 0 0 143.116 43.701 A 1.732 1.732 0 0 1 143.636 42.449 A 2.212 2.212 0 0 1 143.653 42.432 A 1.789 1.789 0 0 1 144.947 41.895 A 2.255 2.255 0 0 1 144.971 41.895 A 1.777 1.777 0 0 1 146.241 42.407 Q 146.778 42.92 146.778 43.701 L 146.778 58.692 A 382.971 382.971 0 0 1 149.024 54.932 A 27.313 27.313 0 0 1 150.475 52.765 A 22.801 22.801 0 0 1 151.392 51.612 A 12.61 12.61 0 0 1 152.982 50.035 A 10.518 10.518 0 0 1 154.077 49.243 A 5.898 5.898 0 0 1 157.276 48.34 Q 158.936 48.34 160.303 49.121 A 7.291 7.291 0 0 1 162.515 51.091 A 8.45 8.45 0 0 1 162.647 51.27 A 9.328 9.328 0 0 1 163.708 53.232 A 11.801 11.801 0 0 1 164.136 54.517 A 14.699 14.699 0 0 1 164.617 57.488 A 17.202 17.202 0 0 1 164.649 58.545 Q 164.649 62.753 163.235 65.805 A 12.616 12.616 0 0 1 163.037 66.211 A 15.847 15.847 0 0 1 161.517 68.659 Q 160.453 70.053 159.166 70.985 A 9.972 9.972 0 0 1 159.082 71.045 Z M 178.711 65.723 L 178.76 68.018 A 72.567 72.567 0 0 1 179.602 66.29 A 94.233 94.233 0 0 1 180.567 64.429 A 125.291 125.291 0 0 1 182.473 60.979 A 138.886 138.886 0 0 1 182.764 60.474 A 81.611 81.611 0 0 1 185.254 56.446 A 48.841 48.841 0 0 1 187.812 52.906 A 44.682 44.682 0 0 1 187.989 52.686 A 13.101 13.101 0 0 1 189.054 51.538 Q 189.639 50.983 190.227 50.589 A 6.764 6.764 0 0 1 190.845 50.22 A 7.456 7.456 0 0 1 191.987 49.73 Q 192.801 49.463 193.555 49.463 A 5.337 5.337 0 0 1 194.675 49.576 A 4.14 4.14 0 0 1 195.777 49.976 Q 196.729 50.488 197.339 51.367 A 6.193 6.193 0 0 1 198.04 52.714 A 7.596 7.596 0 0 1 198.267 53.418 Q 198.584 54.59 198.584 55.957 A 15.486 15.486 0 0 1 198.563 56.733 Q 198.516 57.668 198.365 58.96 A 33.107 33.107 0 0 0 198.153 62.128 A 37.397 37.397 0 0 0 198.145 62.891 A 21.91 21.91 0 0 0 198.267 65.21 A 10.479 10.479 0 0 0 198.438 66.297 A 7.905 7.905 0 0 0 198.706 67.261 Q 199.024 68.164 199.658 68.726 Q 200.293 69.287 201.319 69.287 A 4.458 4.458 0 0 0 202.985 68.954 A 5.699 5.699 0 0 0 203.662 68.628 A 10.101 10.101 0 0 0 205.072 67.662 A 12.824 12.824 0 0 0 205.957 66.87 Q 207.08 65.772 208.106 64.429 A 33.588 33.588 0 0 0 209.751 62.079 A 30.372 30.372 0 0 0 209.961 61.743 A 38.831 38.831 0 0 0 210.923 60.103 A 32.324 32.324 0 0 0 211.426 59.155 A 118.01 118.01 0 0 0 211.728 58.559 Q 212.158 57.703 212.451 57.08 Q 212.886 56.081 213.899 55.971 A 2.409 2.409 0 0 1 214.16 55.957 Q 214.991 55.957 215.479 56.543 A 2.202 2.202 0 0 1 215.825 57.104 A 1.823 1.823 0 0 1 215.967 57.813 A 1.839 1.839 0 0 1 215.821 58.545 Q 215.661 58.864 215.257 59.737 A 209.79 209.79 0 0 0 215.064 60.156 Q 214.634 61.091 213.975 62.255 A 45.968 45.968 0 0 1 213.55 62.988 A 40.346 40.346 0 0 1 212.308 64.954 A 50.273 50.273 0 0 1 211.328 66.358 A 24.369 24.369 0 0 1 208.521 69.605 A 14.862 14.862 0 0 1 205.45 71.91 A 13.9 13.9 0 0 1 205.2 72.046 A 7.82 7.82 0 0 1 201.465 72.998 A 8.684 8.684 0 0 1 200.025 72.886 Q 198.749 72.671 197.852 72.046 A 6.595 6.595 0 0 1 195.728 69.629 A 10.006 10.006 0 0 1 194.867 67.24 A 11.869 11.869 0 0 1 194.702 66.358 A 24.199 24.199 0 0 1 194.438 63.271 A 21.987 21.987 0 0 1 194.434 62.842 A 23.977 23.977 0 0 1 194.462 61.696 A 29.23 29.23 0 0 1 194.507 60.962 A 74.548 74.548 0 0 1 194.678 58.985 A 144.013 144.013 0 0 0 194.77 58.039 A 117.663 117.663 0 0 0 194.849 57.154 A 24.409 24.409 0 0 0 194.894 56.55 Q 194.908 56.315 194.915 56.106 A 11.531 11.531 0 0 0 194.922 55.713 Q 194.922 54.199 194.507 53.662 Q 194.092 53.125 193.555 53.125 A 1.68 1.68 0 0 0 192.952 53.247 Q 192.46 53.436 191.898 53.918 A 6.58 6.58 0 0 0 191.773 54.029 A 12.724 12.724 0 0 0 190.911 54.891 Q 190.497 55.344 190.067 55.886 A 24.016 24.016 0 0 0 189.673 56.397 A 34.871 34.871 0 0 0 188.437 58.161 A 43.898 43.898 0 0 0 187.476 59.693 A 174.17 174.17 0 0 0 185.352 63.33 Q 184.326 65.137 183.496 66.773 A 824.428 824.428 0 0 0 183.1 67.555 Q 182.532 68.677 182.129 69.483 A 13.48 13.48 0 0 1 181.55 70.53 Q 180.809 71.733 180.054 72.241 A 5.564 5.564 0 0 1 179.419 72.615 Q 178.745 72.949 178.174 72.949 Q 176.675 72.949 175.871 71.776 A 3.293 3.293 0 0 1 175.855 71.753 Q 175.049 70.557 175.049 68.848 L 175.049 65.772 A 6502.397 6502.397 0 0 1 175.055 56.757 A 5620.963 5620.963 0 0 1 175.074 48.169 Q 175.098 39.795 175.318 32.593 A 268.484 268.484 0 0 1 175.611 25.733 A 196.887 196.887 0 0 1 176.05 19.556 A 88.25 88.25 0 0 1 176.507 15.42 Q 176.782 13.391 177.136 11.623 A 45.023 45.023 0 0 1 177.588 9.595 Q 178.614 5.469 180.2 3.223 A 6.13 6.13 0 0 1 181.358 1.967 A 4.383 4.383 0 0 1 184.18 0.977 A 6.209 6.209 0 0 1 185.908 1.207 A 5.002 5.002 0 0 1 187.647 2.1 A 7.422 7.422 0 0 1 189.257 3.895 A 9.673 9.673 0 0 1 189.942 5.152 A 14.746 14.746 0 0 1 190.738 7.38 A 20.027 20.027 0 0 1 191.211 9.644 A 34.781 34.781 0 0 1 191.583 13.813 A 39.815 39.815 0 0 1 191.602 15.039 A 60.601 60.601 0 0 1 190.552 26.343 Q 189.502 31.885 187.744 37.158 Q 185.987 42.432 183.643 47.437 Q 181.299 52.442 178.711 57.178 L 178.711 59.278 L 178.711 61.719 L 178.711 64.014 L 178.711 65.723 Z M 433.642 59.543 A 60.662 60.662 0 0 0 434.082 58.643 A 4.736 4.736 0 0 0 434.118 58.55 Q 434.222 58.273 434.259 58.064 A 1.198 1.198 0 0 0 434.278 57.862 Q 434.278 57.129 433.765 56.543 A 1.655 1.655 0 0 0 433.077 56.065 A 1.906 1.906 0 0 0 432.422 55.957 A 1.836 1.836 0 0 0 431.446 56.226 Q 431.006 56.494 430.762 56.983 Q 430.127 58.301 428.98 60.474 Q 427.832 62.647 426.319 64.746 Q 424.805 66.846 422.998 68.384 A 7.408 7.408 0 0 1 421.739 69.26 A 5.176 5.176 0 0 1 419.239 69.922 A 4.413 4.413 0 0 1 416.991 69.313 Q 416.18 68.843 415.453 68.01 A 10.387 10.387 0 0 1 414.307 66.382 A 20.698 20.698 0 0 1 412.995 63.634 Q 411.837 60.71 411.035 56.641 A 153.76 153.76 0 0 0 416.162 46.411 A 106.787 106.787 0 0 0 420.313 35.889 A 85.296 85.296 0 0 0 423.096 25.415 A 57.914 57.914 0 0 0 423.444 23.476 A 50.876 50.876 0 0 0 424.121 15.332 A 57.237 57.237 0 0 0 424.093 13.51 Q 424.005 10.723 423.633 8.643 Q 423.336 6.977 422.893 5.691 A 11.324 11.324 0 0 0 422.266 4.199 A 8.881 8.881 0 0 0 422.15 3.982 Q 421.303 2.441 420.093 1.734 Q 418.799 0.977 417.188 0.977 A 4.654 4.654 0 0 0 414.9 1.566 A 5.907 5.907 0 0 0 413.526 2.637 A 10.594 10.594 0 0 0 412.994 3.228 Q 412.329 4.026 411.73 5.04 A 19.784 19.784 0 0 0 410.669 7.129 A 28.538 28.538 0 0 0 410.505 7.509 Q 409.937 8.854 409.443 10.4 A 46.79 46.79 0 0 0 408.521 13.721 A 75.251 75.251 0 0 0 408.089 15.628 A 86.399 86.399 0 0 0 407.032 21.68 Q 406.446 25.879 406.177 30.274 A 150.927 150.927 0 0 0 406.06 32.453 A 135.734 135.734 0 0 0 405.908 38.77 A 99.777 99.777 0 0 0 405.912 39.583 Q 405.922 40.827 405.963 42.218 A 174.499 174.499 0 0 0 406.079 45.264 A 88.673 88.673 0 0 0 406.127 46.183 A 97.72 97.72 0 0 0 406.739 52.808 Q 407.227 56.69 408.13 60.425 A 36.264 36.264 0 0 0 408.957 63.327 A 28.449 28.449 0 0 0 410.498 67.09 A 17.71 17.71 0 0 0 411.74 69.208 A 13.575 13.575 0 0 0 414.063 71.826 A 7.323 7.323 0 0 0 416.175 73.108 A 7.919 7.919 0 0 0 419.092 73.633 A 8.213 8.213 0 0 0 422.681 72.827 A 13.31 13.31 0 0 0 422.793 72.773 A 14.157 14.157 0 0 0 425.855 70.728 A 20.582 20.582 0 0 0 428.614 67.798 A 41.023 41.023 0 0 0 428.771 67.594 A 37.44 37.44 0 0 0 430.908 64.502 A 58.183 58.183 0 0 0 431.647 63.274 A 48.871 48.871 0 0 0 432.74 61.304 A 116.087 116.087 0 0 0 433.217 60.383 Q 433.442 59.943 433.642 59.543 Z M 243.116 52.1 Q 242.92 53.418 242.627 54.566 A 48.681 48.681 0 0 1 242.376 55.514 Q 242.256 55.944 242.142 56.321 A 26.573 26.573 0 0 1 242.066 56.568 A 55.181 55.181 0 0 1 241.936 56.975 Q 241.748 57.556 241.602 57.959 A 18.82 18.82 0 0 1 241.555 58.086 Q 241.4 58.502 241.358 58.545 Q 240.923 59.544 239.91 59.654 A 2.409 2.409 0 0 1 239.649 59.668 A 1.8 1.8 0 0 1 238.64 59.355 A 2.422 2.422 0 0 1 238.379 59.155 A 1.678 1.678 0 0 1 237.905 58.494 A 1.74 1.74 0 0 1 237.793 57.862 A 1.417 1.417 0 0 1 237.801 57.708 Q 237.819 57.542 237.88 57.439 A 0.395 0.395 0 0 1 237.891 57.422 A 1.308 1.308 0 0 0 237.942 57.337 Q 238.034 57.173 238.184 56.836 A 4.712 4.712 0 0 0 238.288 56.58 Q 238.398 56.285 238.534 55.841 A 27.413 27.413 0 0 0 238.672 55.371 A 19.583 19.583 0 0 0 238.828 54.788 Q 239.075 53.809 239.405 52.197 A 30.655 30.655 0 0 1 237.805 52.155 A 33.536 33.536 0 0 1 237.696 52.149 A 5.487 5.487 0 0 1 236.449 51.939 A 4.921 4.921 0 0 1 236.06 51.807 Q 235.303 51.514 234.815 50.879 A 2.157 2.157 0 0 1 234.464 50.177 Q 234.374 49.876 234.343 49.515 A 4.587 4.587 0 0 1 234.326 49.121 A 4.098 4.098 0 0 1 234.372 48.545 Q 234.471 47.849 234.79 46.875 Q 235.254 45.459 236.035 44.092 A 12.451 12.451 0 0 1 237.088 42.526 A 10.445 10.445 0 0 1 237.793 41.724 A 4.458 4.458 0 0 1 238.373 41.218 Q 238.716 40.97 239.06 40.847 A 2.014 2.014 0 0 1 239.746 40.723 Q 240.869 40.723 241.577 41.553 A 5.483 5.483 0 0 1 242.37 42.8 A 6.912 6.912 0 0 1 242.676 43.579 A 13.78 13.78 0 0 1 243.232 46.053 A 15.007 15.007 0 0 1 243.238 46.094 Q 243.408 47.412 243.408 48.389 A 54.01 54.01 0 0 0 245.044 48.364 A 54.63 54.63 0 0 1 245.832 48.346 A 47.322 47.322 0 0 1 246.582 48.34 A 10.162 10.162 0 0 1 248.193 48.459 Q 249.823 48.722 250.83 49.561 Q 252.295 50.781 252.295 53.565 A 19.029 19.029 0 0 1 252.213 55.304 A 21.821 21.821 0 0 1 252.149 55.908 A 82.614 82.614 0 0 1 251.855 58.101 A 90.615 90.615 0 0 1 251.807 58.423 A 74.032 74.032 0 0 0 251.465 60.987 A 21.718 21.718 0 0 0 251.319 63.477 A 10.431 10.431 0 0 0 251.384 64.685 Q 251.455 65.292 251.603 65.803 A 5.047 5.047 0 0 0 251.807 66.382 A 6.457 6.457 0 0 0 252.281 67.297 Q 252.595 67.795 252.976 68.164 A 3.999 3.999 0 0 0 253.028 68.213 A 4.647 4.647 0 0 0 253.833 68.822 A 3.766 3.766 0 0 0 254.59 69.165 A 6.121 6.121 0 0 0 255.288 69.349 Q 255.652 69.421 255.982 69.432 A 3.581 3.581 0 0 0 256.104 69.434 A 6.39 6.39 0 0 0 259.532 68.424 A 8.08 8.08 0 0 0 260.059 68.067 A 18.338 18.338 0 0 0 263.057 65.273 A 20.788 20.788 0 0 0 263.477 64.771 A 31.79 31.79 0 0 0 266.284 60.694 A 117.405 117.405 0 0 0 267.16 59.158 Q 267.585 58.397 267.948 57.719 A 60.626 60.626 0 0 0 268.36 56.934 Q 268.604 56.494 269.043 56.25 Q 269.483 56.006 269.971 56.006 A 2.203 2.203 0 0 1 270.549 56.078 A 1.563 1.563 0 0 1 271.338 56.568 A 2.045 2.045 0 0 1 271.696 57.14 A 1.772 1.772 0 0 1 271.826 57.813 A 2.103 2.103 0 0 1 271.765 58.331 A 1.784 1.784 0 0 1 271.631 58.692 Q 270.583 60.561 269.215 62.877 A 310.604 310.604 0 0 1 269.019 63.208 A 32.346 32.346 0 0 1 265.625 67.92 A 19.622 19.622 0 0 1 261.353 71.631 A 9.463 9.463 0 0 1 256.153 73.145 Q 254.395 73.145 252.832 72.486 A 7.729 7.729 0 0 1 250.122 70.581 A 8.586 8.586 0 0 1 248.816 68.695 A 10.831 10.831 0 0 1 248.291 67.505 Q 247.608 65.674 247.608 63.379 A 24.476 24.476 0 0 1 248.096 58.521 A 24.759 24.759 0 0 0 248.527 55.443 A 20.862 20.862 0 0 0 248.584 53.906 Q 248.584 53.315 248.416 52.912 A 1.401 1.401 0 0 0 248.169 52.515 A 1 1 0 0 0 247.835 52.28 Q 247.335 52.052 246.343 52.051 A 5.419 5.419 0 0 0 246.338 52.051 L 244.849 52.051 A 29.726 29.726 0 0 0 244.013 52.063 A 36.801 36.801 0 0 0 243.116 52.1 Z M 381.104 52.1 Q 380.908 53.418 380.616 54.566 A 48.681 48.681 0 0 1 380.364 55.514 Q 380.245 55.944 380.13 56.321 A 26.573 26.573 0 0 1 380.054 56.568 A 55.181 55.181 0 0 1 379.924 56.975 Q 379.737 57.556 379.59 57.959 A 18.82 18.82 0 0 1 379.544 58.086 Q 379.389 58.502 379.346 58.545 Q 378.912 59.544 377.898 59.654 A 2.409 2.409 0 0 1 377.637 59.668 A 1.8 1.8 0 0 1 376.628 59.355 A 2.422 2.422 0 0 1 376.367 59.155 A 1.678 1.678 0 0 1 375.894 58.494 A 1.74 1.74 0 0 1 375.782 57.862 A 1.417 1.417 0 0 1 375.789 57.708 Q 375.807 57.542 375.868 57.439 A 0.395 0.395 0 0 1 375.879 57.422 A 1.308 1.308 0 0 0 375.93 57.337 Q 376.023 57.173 376.172 56.836 A 4.712 4.712 0 0 0 376.276 56.58 Q 376.387 56.285 376.522 55.841 A 27.413 27.413 0 0 0 376.66 55.371 A 19.583 19.583 0 0 0 376.816 54.788 Q 377.063 53.809 377.393 52.197 A 30.655 30.655 0 0 1 375.794 52.155 A 33.536 33.536 0 0 1 375.684 52.149 A 5.487 5.487 0 0 1 374.437 51.939 A 4.921 4.921 0 0 1 374.048 51.807 Q 373.291 51.514 372.803 50.879 A 2.157 2.157 0 0 1 372.453 50.177 Q 372.362 49.876 372.331 49.515 A 4.587 4.587 0 0 1 372.315 49.121 A 4.098 4.098 0 0 1 372.36 48.545 Q 372.46 47.849 372.779 46.875 Q 373.242 45.459 374.024 44.092 A 12.451 12.451 0 0 1 375.077 42.526 A 10.445 10.445 0 0 1 375.782 41.724 A 4.458 4.458 0 0 1 376.361 41.218 Q 376.705 40.97 377.048 40.847 A 2.014 2.014 0 0 1 377.735 40.723 Q 378.858 40.723 379.566 41.553 A 5.483 5.483 0 0 1 380.358 42.8 A 6.912 6.912 0 0 1 380.664 43.579 A 13.78 13.78 0 0 1 381.22 46.053 A 15.007 15.007 0 0 1 381.226 46.094 Q 381.397 47.412 381.397 48.389 A 54.01 54.01 0 0 0 383.032 48.364 A 54.63 54.63 0 0 1 383.82 48.346 A 47.322 47.322 0 0 1 384.571 48.34 A 10.162 10.162 0 0 1 386.181 48.459 Q 387.812 48.722 388.819 49.561 Q 390.283 50.781 390.283 53.565 A 19.029 19.029 0 0 1 390.201 55.304 A 21.821 21.821 0 0 1 390.137 55.908 A 82.614 82.614 0 0 1 389.843 58.101 A 90.615 90.615 0 0 1 389.795 58.423 A 74.032 74.032 0 0 0 389.453 60.987 A 21.718 21.718 0 0 0 389.307 63.477 A 10.431 10.431 0 0 0 389.373 64.685 Q 389.444 65.292 389.591 65.803 A 5.047 5.047 0 0 0 389.795 66.382 A 6.457 6.457 0 0 0 390.269 67.297 Q 390.583 67.795 390.965 68.164 A 3.999 3.999 0 0 0 391.016 68.213 A 4.647 4.647 0 0 0 391.822 68.822 A 3.766 3.766 0 0 0 392.578 69.165 A 6.121 6.121 0 0 0 393.277 69.349 Q 393.64 69.421 393.971 69.432 A 3.581 3.581 0 0 0 394.092 69.434 A 6.39 6.39 0 0 0 397.52 68.424 A 8.08 8.08 0 0 0 398.047 68.067 A 18.338 18.338 0 0 0 401.045 65.273 A 20.788 20.788 0 0 0 401.465 64.771 A 31.79 31.79 0 0 0 404.273 60.694 A 117.405 117.405 0 0 0 405.148 59.158 Q 405.574 58.397 405.936 57.719 A 60.626 60.626 0 0 0 406.348 56.934 Q 406.592 56.494 407.032 56.25 Q 407.471 56.006 407.959 56.006 A 2.203 2.203 0 0 1 408.538 56.078 A 1.563 1.563 0 0 1 409.326 56.568 A 2.045 2.045 0 0 1 409.685 57.14 A 1.772 1.772 0 0 1 409.815 57.813 A 2.103 2.103 0 0 1 409.753 58.331 A 1.784 1.784 0 0 1 409.619 58.692 Q 408.571 60.561 407.203 62.877 A 310.604 310.604 0 0 1 407.007 63.208 A 32.346 32.346 0 0 1 403.614 67.92 A 19.622 19.622 0 0 1 399.341 71.631 A 9.463 9.463 0 0 1 394.141 73.145 Q 392.383 73.145 390.821 72.486 A 7.729 7.729 0 0 1 388.111 70.581 A 8.586 8.586 0 0 1 386.804 68.695 A 10.831 10.831 0 0 1 386.28 67.505 Q 385.596 65.674 385.596 63.379 A 24.476 24.476 0 0 1 386.084 58.521 A 24.759 24.759 0 0 0 386.515 55.443 A 20.862 20.862 0 0 0 386.573 53.906 Q 386.573 53.315 386.404 52.912 A 1.401 1.401 0 0 0 386.157 52.515 A 1 1 0 0 0 385.823 52.28 Q 385.323 52.052 384.332 52.051 A 5.419 5.419 0 0 0 384.326 52.051 L 382.837 52.051 A 29.726 29.726 0 0 0 382.001 52.063 A 36.801 36.801 0 0 0 381.104 52.1 Z M 26.136 59.161 A 1.838 1.838 0 0 0 26.563 58.692 A 2.159 2.159 0 0 0 26.672 58.518 A 1.705 1.705 0 0 0 26.905 57.666 A 2.336 2.336 0 0 0 26.901 57.538 Q 26.853 56.654 26.123 56.153 A 361.372 361.372 0 0 1 25.462 55.706 Q 23.477 54.363 21.924 53.272 A 757.144 757.144 0 0 0 20.191 52.057 A 577.252 577.252 0 0 0 18.604 50.952 A 2136.628 2136.628 0 0 0 17.133 49.933 A 1782.12 1782.12 0 0 0 15.747 48.975 A 86.957 86.957 0 0 0 15.067 48.509 A 98.083 98.083 0 0 0 12.915 47.095 A 244.03 244.03 0 0 0 11.365 46.112 A 302.326 302.326 0 0 0 9.693 45.069 Q 7.959 43.994 5.664 42.627 A 98.144 98.144 0 0 0 9.423 40.195 A 78.226 78.226 0 0 0 14.307 36.597 A 167.425 167.425 0 0 0 15.752 35.426 Q 18.64 33.059 20.801 31.055 Q 23.487 28.565 24.976 26.905 Q 26.186 25.556 26.542 25.109 A 2.539 2.539 0 0 0 26.66 24.951 Q 26.885 24.695 26.962 24.312 A 2.204 2.204 0 0 0 27.002 23.877 A 1.78 1.78 0 0 0 26.864 23.177 A 1.967 1.967 0 0 0 26.465 22.583 A 2.109 2.109 0 0 0 26.431 22.549 A 1.75 1.75 0 0 0 25.147 22.022 A 1.755 1.755 0 0 0 24.206 22.28 A 2.061 2.061 0 0 0 23.682 22.754 A 1.052 1.052 0 0 0 23.658 22.78 Q 23.534 22.914 22.852 23.682 A 28.113 28.113 0 0 1 22.558 24.007 Q 22.045 24.566 21.323 25.302 A 98.97 98.97 0 0 1 20.655 25.977 Q 19.77 26.862 18.656 27.918 A 167.996 167.996 0 0 1 17.237 29.248 Q 15.235 31.104 12.72 33.13 Q 10.205 35.156 7.276 37.183 A 63.317 63.317 0 0 1 6.908 37.435 A 69.062 69.062 0 0 1 1.026 41.016 A 2.501 2.501 0 0 0 0.752 41.181 Q 0 41.707 0 42.627 Q 0 43.272 0.306 43.724 A 1.86 1.86 0 0 0 0.928 44.287 Q 2.277 45.04 3.467 45.723 A 165.891 165.891 0 0 1 5.445 46.875 A 113.921 113.921 0 0 1 6.887 47.744 A 93.357 93.357 0 0 1 9.107 49.146 A 310.214 310.214 0 0 1 9.526 49.42 A 280.979 280.979 0 0 1 12.354 51.294 Q 13.916 52.344 15.65 53.54 A 448.072 448.072 0 0 1 17.444 54.785 A 551.082 551.082 0 0 1 19.361 56.128 A 240.232 240.232 0 0 0 19.929 56.527 Q 20.799 57.136 21.778 57.81 A 419.594 419.594 0 0 0 23.926 59.278 A 2.159 2.159 0 0 0 24.099 59.387 A 1.705 1.705 0 0 0 24.951 59.619 A 1.583 1.583 0 0 0 25.457 59.533 A 2.18 2.18 0 0 0 25.855 59.351 A 2.379 2.379 0 0 0 26.136 59.161 Z M 218.311 66.797 A 7.594 7.594 0 0 0 220.948 69.068 Q 222.437 69.857 224.552 69.917 A 12.41 12.41 0 0 0 224.903 69.922 A 8.592 8.592 0 0 0 228.244 69.277 A 8.253 8.253 0 0 0 229.248 68.775 A 14.061 14.061 0 0 0 232.301 66.334 A 16.247 16.247 0 0 0 232.813 65.772 A 23.85 23.85 0 0 0 235.453 62.048 A 26.568 26.568 0 0 0 235.694 61.621 Q 236.963 59.326 237.989 57.031 A 2.021 2.021 0 0 1 238.26 56.587 A 1.619 1.619 0 0 1 238.672 56.226 A 1.836 1.836 0 0 1 239.649 55.957 A 1.906 1.906 0 0 1 240.303 56.065 A 1.655 1.655 0 0 1 240.991 56.543 A 2.213 2.213 0 0 1 241.337 57.065 A 1.752 1.752 0 0 1 241.504 57.813 Q 241.504 58.057 241.455 58.228 A 1.835 1.835 0 0 1 241.394 58.405 A 2.5 2.5 0 0 1 241.309 58.593 Q 237.94 66.016 233.96 69.776 A 14.632 14.632 0 0 1 229.999 72.496 A 12.603 12.603 0 0 1 224.951 73.633 Q 221.729 73.633 219.385 72.388 A 11.918 11.918 0 0 1 216.23 69.995 A 11.164 11.164 0 0 1 215.528 69.165 A 13.583 13.583 0 0 1 213.282 64.697 A 17.575 17.575 0 0 1 212.549 59.717 Q 212.549 57.227 213.159 55.127 A 12.521 12.521 0 0 1 214.074 52.823 A 10.485 10.485 0 0 1 214.917 51.465 A 8.683 8.683 0 0 1 216.886 49.506 A 8.071 8.071 0 0 1 217.652 49.024 Q 219.239 48.145 221.143 48.145 A 5.638 5.638 0 0 1 223.261 48.566 A 6.452 6.452 0 0 1 223.365 48.609 A 6.375 6.375 0 0 1 225.342 49.927 A 6.376 6.376 0 0 1 226.581 51.629 A 7.471 7.471 0 0 1 226.758 52.002 A 6.262 6.262 0 0 1 227.22 53.662 A 8.079 8.079 0 0 1 227.295 54.785 A 10.394 10.394 0 0 1 226.781 58.074 A 9.795 9.795 0 0 1 226.612 58.545 Q 225.928 60.303 224.732 61.817 A 15.64 15.64 0 0 1 222.482 64.115 A 17.839 17.839 0 0 1 221.875 64.6 A 20.971 20.971 0 0 1 218.311 66.797 Z M 118.653 62.451 Q 118.653 55.42 119.532 48.438 Q 119.629 47.754 120.142 47.241 A 1.725 1.725 0 0 1 121.155 46.751 A 2.399 2.399 0 0 1 121.485 46.729 A 1.54 1.54 0 0 1 122.635 47.214 A 1.932 1.932 0 0 1 122.705 47.29 A 1.914 1.914 0 0 1 123.194 48.584 A 3.592 3.592 0 0 1 123.189 48.735 Q 123.171 49.152 123.072 50.342 Q 122.988 51.349 122.881 52.622 A 4937.162 4937.162 0 0 1 122.779 53.833 Q 122.608 55.86 122.486 58.13 A 89.207 89.207 0 0 0 122.394 60.309 A 68.393 68.393 0 0 0 122.364 62.305 A 21.689 21.689 0 0 0 122.414 63.825 Q 122.469 64.607 122.584 65.27 A 8.927 8.927 0 0 0 122.876 66.48 A 9.227 9.227 0 0 0 123.292 67.55 Q 123.685 68.389 124.195 68.946 A 5.069 5.069 0 0 0 124.865 69.563 Q 125.305 69.896 125.77 70.071 A 3.105 3.105 0 0 0 125.904 70.117 A 6.132 6.132 0 0 0 126.924 70.358 A 5.017 5.017 0 0 0 127.637 70.41 A 4.304 4.304 0 0 0 129.139 70.127 Q 129.692 69.922 130.259 69.569 A 7.868 7.868 0 0 0 130.469 69.434 A 12.258 12.258 0 0 0 131.765 68.43 Q 132.607 67.688 133.472 66.699 Q 134.961 64.997 136.473 62.632 A 47.112 47.112 0 0 0 136.573 62.476 A 57.077 57.077 0 0 0 138.411 59.35 A 71.218 71.218 0 0 0 139.649 56.983 Q 139.893 56.494 140.332 56.226 A 1.836 1.836 0 0 1 141.309 55.957 A 1.698 1.698 0 0 1 142.063 56.123 A 1.715 1.715 0 0 1 142.603 56.543 A 2.213 2.213 0 0 1 142.949 57.065 A 1.752 1.752 0 0 1 143.116 57.813 Q 143.116 58.292 142.927 58.63 A 1.283 1.283 0 0 1 142.92 58.643 A 120.518 120.518 0 0 1 142.44 59.554 Q 142.005 60.37 141.455 61.377 Q 140.576 62.988 139.453 64.697 A 45.815 45.815 0 0 1 136.988 68.091 A 24.386 24.386 0 0 1 134.413 70.864 A 22.341 22.341 0 0 1 134.131 71.118 A 15.182 15.182 0 0 1 131.804 72.829 A 13.449 13.449 0 0 1 130.957 73.291 A 7.812 7.812 0 0 1 128.757 74.023 A 7.019 7.019 0 0 1 127.588 74.121 A 8.808 8.808 0 0 1 125.533 73.891 A 7.029 7.029 0 0 1 123.731 73.194 Q 122.071 72.266 120.923 70.703 A 10.239 10.239 0 0 1 119.599 68.228 A 12.594 12.594 0 0 1 119.214 67.017 A 17.067 17.067 0 0 1 118.692 63.726 A 20.182 20.182 0 0 1 118.653 62.451 Z M 355.03 62.451 Q 355.03 55.42 355.908 48.438 Q 356.006 47.754 356.519 47.241 A 1.725 1.725 0 0 1 357.531 46.751 A 2.399 2.399 0 0 1 357.862 46.729 A 1.54 1.54 0 0 1 359.012 47.214 A 1.932 1.932 0 0 1 359.082 47.29 A 1.914 1.914 0 0 1 359.571 48.584 A 3.592 3.592 0 0 1 359.566 48.735 Q 359.548 49.152 359.449 50.342 Q 359.365 51.349 359.258 52.622 A 4937.162 4937.162 0 0 1 359.156 53.833 Q 358.985 55.86 358.863 58.13 A 89.207 89.207 0 0 0 358.771 60.309 A 68.393 68.393 0 0 0 358.741 62.305 A 21.689 21.689 0 0 0 358.791 63.825 Q 358.846 64.607 358.961 65.27 A 8.927 8.927 0 0 0 359.253 66.48 A 9.227 9.227 0 0 0 359.669 67.55 Q 360.062 68.389 360.572 68.946 A 5.069 5.069 0 0 0 361.242 69.563 Q 361.681 69.896 362.147 70.071 A 3.105 3.105 0 0 0 362.281 70.117 A 6.132 6.132 0 0 0 363.301 70.358 A 5.017 5.017 0 0 0 364.014 70.41 A 4.304 4.304 0 0 0 365.516 70.127 Q 366.069 69.922 366.635 69.569 A 7.868 7.868 0 0 0 366.846 69.434 A 12.258 12.258 0 0 0 368.142 68.43 Q 368.984 67.688 369.849 66.699 Q 371.338 64.997 372.85 62.632 A 47.112 47.112 0 0 0 372.949 62.476 A 57.077 57.077 0 0 0 374.788 59.35 A 71.218 71.218 0 0 0 376.026 56.983 Q 376.27 56.494 376.709 56.226 A 1.836 1.836 0 0 1 377.686 55.957 A 1.698 1.698 0 0 1 378.44 56.123 A 1.715 1.715 0 0 1 378.98 56.543 A 2.213 2.213 0 0 1 379.326 57.065 A 1.752 1.752 0 0 1 379.492 57.813 Q 379.492 58.292 379.304 58.63 A 1.283 1.283 0 0 1 379.297 58.643 A 120.518 120.518 0 0 1 378.816 59.554 Q 378.382 60.37 377.832 61.377 Q 376.953 62.988 375.83 64.697 A 45.815 45.815 0 0 1 373.365 68.091 A 24.386 24.386 0 0 1 370.79 70.864 A 22.341 22.341 0 0 1 370.508 71.118 A 15.182 15.182 0 0 1 368.181 72.829 A 13.449 13.449 0 0 1 367.334 73.291 A 7.812 7.812 0 0 1 365.134 74.023 A 7.019 7.019 0 0 1 363.965 74.121 A 8.808 8.808 0 0 1 361.91 73.891 A 7.029 7.029 0 0 1 360.108 73.194 Q 358.448 72.266 357.3 70.703 A 10.239 10.239 0 0 1 355.976 68.228 A 12.594 12.594 0 0 1 355.591 67.017 A 17.067 17.067 0 0 1 355.069 63.726 A 20.182 20.182 0 0 1 355.03 62.451 Z M 409.619 39.014 A 121.998 121.998 0 0 0 409.702 43.564 A 108.129 108.129 0 0 0 409.766 45.02 Q 409.912 47.901 410.157 50.537 A 106.366 106.366 0 0 0 413.123 44.316 A 120.375 120.375 0 0 0 414.063 42.114 A 103.429 103.429 0 0 0 417.334 33.081 Q 418.75 28.516 419.605 23.999 A 49.23 49.23 0 0 0 420.358 18.25 A 41.551 41.551 0 0 0 420.459 15.381 Q 420.459 10.949 419.91 8.452 A 9.91 9.91 0 0 0 419.532 7.129 A 7.386 7.386 0 0 0 419.095 6.159 Q 418.479 5.035 417.651 4.742 A 1.815 1.815 0 0 0 417.041 4.639 Q 416.052 4.639 415.131 5.957 A 6.608 6.608 0 0 0 415.064 6.055 A 11.087 11.087 0 0 0 414.381 7.233 Q 414.058 7.871 413.75 8.639 A 25.597 25.597 0 0 0 413.282 9.912 A 38.309 38.309 0 0 0 412.583 12.217 Q 412.152 13.806 411.768 15.674 A 82.5 82.5 0 0 0 410.999 20.015 A 99.273 99.273 0 0 0 410.62 22.803 A 137.207 137.207 0 0 0 410.034 28.708 A 154.776 154.776 0 0 0 409.888 30.762 A 127.769 127.769 0 0 0 409.619 39.014 Z M 338.819 68.701 A 49.128 49.128 0 0 0 335.72 70.597 A 60.582 60.582 0 0 0 333.765 71.948 Q 331.153 73.828 328.687 76.074 A 52.437 52.437 0 0 0 324.024 80.908 A 39.803 39.803 0 0 0 320.166 86.28 A 27.87 27.87 0 0 0 317.554 92.017 A 19.238 19.238 0 0 0 316.602 97.949 A 10.132 10.132 0 0 0 316.767 99.818 A 8.097 8.097 0 0 0 317.188 101.294 A 7.314 7.314 0 0 0 318.401 103.353 A 6.847 6.847 0 0 0 318.848 103.833 A 7.657 7.657 0 0 0 321.387 105.469 A 8.248 8.248 0 0 0 323.749 106.018 A 9.932 9.932 0 0 0 324.61 106.055 A 10.869 10.869 0 0 0 333.377 101.776 A 18.184 18.184 0 0 0 335.352 98.755 A 27.336 27.336 0 0 0 337.548 92.943 Q 339.085 87.109 339.2 78.8 A 98.281 98.281 0 0 0 339.209 77.442 A 95.169 95.169 0 0 0 339.112 73.169 Q 339.014 70.996 338.819 68.701 Z M 178.76 50 Q 180.811 45.508 182.495 41.236 A 88.999 88.999 0 0 0 185.376 32.715 Q 186.573 28.467 187.256 24.097 A 58.113 58.113 0 0 0 187.929 16.169 A 64.694 64.694 0 0 0 187.94 14.99 Q 187.94 14.238 187.872 12.627 A 168.917 168.917 0 0 0 187.866 12.5 A 21.494 21.494 0 0 0 187.427 9.033 A 11.761 11.761 0 0 0 186.932 7.302 A 9.14 9.14 0 0 0 186.304 5.957 A 3.048 3.048 0 0 0 185.757 5.248 A 2.216 2.216 0 0 0 184.18 4.639 A 1.616 1.616 0 0 0 183.136 5.034 Q 182.882 5.241 182.65 5.558 A 4.614 4.614 0 0 0 182.324 6.079 A 10.549 10.549 0 0 0 181.788 7.247 Q 181.56 7.826 181.353 8.511 A 24.982 24.982 0 0 0 180.957 9.986 A 41.126 41.126 0 0 0 180.482 12.297 Q 180.2 13.883 179.981 15.723 Q 179.59 18.994 179.346 22.656 A 215.606 215.606 0 0 0 178.98 30.176 Q 178.858 34.033 178.809 37.671 A 563.626 563.626 0 0 0 178.772 41.193 A 459.374 459.374 0 0 0 178.76 44.483 L 178.76 50 Z M 142.969 74.219 A 150.594 150.594 0 0 0 138.648 85.01 A 141.289 141.289 0 0 0 136.178 92.599 A 121.546 121.546 0 0 0 135.376 95.459 A 112.051 112.051 0 0 0 134.059 100.916 A 88.663 88.663 0 0 0 133.301 104.883 Q 132.569 109.278 132.569 112.598 Q 132.569 113.428 132.666 114.405 A 8.175 8.175 0 0 0 132.879 115.623 A 6.966 6.966 0 0 0 133.057 116.211 Q 133.35 117.041 133.887 117.603 A 1.793 1.793 0 0 0 135.005 118.147 A 2.493 2.493 0 0 0 135.303 118.164 A 2.548 2.548 0 0 0 136.955 117.541 Q 137.564 117.04 138.086 116.138 A 13.681 13.681 0 0 0 138.91 114.429 Q 139.275 113.528 139.594 112.451 A 31.55 31.55 0 0 0 140.064 110.669 A 60.538 60.538 0 0 0 140.76 107.217 Q 141.076 105.393 141.334 103.348 A 101.842 101.842 0 0 0 141.407 102.759 A 166.449 166.449 0 0 0 142.089 95.824 A 188.618 188.618 0 0 0 142.261 93.408 Q 142.578 88.526 142.725 83.57 A 1399.629 1399.629 0 0 0 142.859 78.754 A 1168.4 1168.4 0 0 0 142.969 74.219 Z M 216.846 63.623 A 11.906 11.906 0 0 0 219.605 62.012 A 11.813 11.813 0 0 0 221.327 60.367 A 10.63 10.63 0 0 0 221.729 59.863 Q 222.608 58.692 223.096 57.398 A 7.349 7.349 0 0 0 223.584 54.785 A 4.683 4.683 0 0 0 223.513 53.939 Q 223.427 53.471 223.237 53.104 A 2.264 2.264 0 0 0 222.852 52.564 A 2.582 2.582 0 0 0 222.151 52.04 A 2.226 2.226 0 0 0 221.143 51.807 A 3.956 3.956 0 0 0 219.993 51.968 A 3.29 3.29 0 0 0 218.897 52.539 A 5.337 5.337 0 0 0 217.656 53.952 A 6.453 6.453 0 0 0 217.383 54.444 A 9.388 9.388 0 0 0 216.705 56.267 A 11.22 11.22 0 0 0 216.529 57.056 A 15.558 15.558 0 0 0 216.26 59.912 A 10.156 10.156 0 0 0 216.337 61.137 A 12.195 12.195 0 0 0 216.431 61.768 A 20.101 20.101 0 0 0 216.728 63.178 A 17.746 17.746 0 0 0 216.846 63.623 Z M 126.085 35.885 A 4.376 4.376 0 0 0 126.563 33.838 A 4.997 4.997 0 0 0 126.562 33.766 A 4.374 4.374 0 0 0 126.221 32.105 Q 125.879 31.299 125.269 30.689 Q 124.658 30.078 123.853 29.737 Q 123.047 29.395 122.119 29.395 A 4.997 4.997 0 0 0 122.047 29.395 A 4.374 4.374 0 0 0 120.386 29.737 Q 119.58 30.078 118.97 30.689 Q 118.36 31.299 118.018 32.105 Q 117.676 32.91 117.676 33.838 A 5.282 5.282 0 0 0 117.676 33.896 A 4.28 4.28 0 0 0 118.97 36.988 A 4.469 4.469 0 0 0 120.072 37.804 A 4.376 4.376 0 0 0 122.119 38.281 A 5.282 5.282 0 0 0 122.177 38.281 A 4.28 4.28 0 0 0 125.269 36.988 A 4.469 4.469 0 0 0 126.085 35.885 Z M 362.462 35.885 A 4.376 4.376 0 0 0 362.94 33.838 A 4.997 4.997 0 0 0 362.939 33.766 A 4.374 4.374 0 0 0 362.598 32.105 Q 362.256 31.299 361.646 30.689 Q 361.035 30.078 360.23 29.737 Q 359.424 29.395 358.496 29.395 A 4.997 4.997 0 0 0 358.424 29.395 A 4.374 4.374 0 0 0 356.763 29.737 Q 355.957 30.078 355.347 30.689 Q 354.737 31.299 354.395 32.105 Q 354.053 32.91 354.053 33.838 A 5.282 5.282 0 0 0 354.053 33.896 A 4.28 4.28 0 0 0 355.347 36.988 A 4.469 4.469 0 0 0 356.449 37.804 A 4.376 4.376 0 0 0 358.496 38.281 A 5.282 5.282 0 0 0 358.554 38.281 A 4.28 4.28 0 0 0 361.646 36.988 A 4.469 4.469 0 0 0 362.462 35.885 Z M 123.828 33.838 A 1.631 1.631 0 0 0 123.348 32.675 A 2.141 2.141 0 0 0 123.316 32.642 A 1.787 1.787 0 0 0 122.788 32.27 A 1.606 1.606 0 0 0 122.119 32.129 Q 121.436 32.129 120.948 32.642 A 1.68 1.68 0 0 0 120.459 33.838 A 1.596 1.596 0 0 0 120.932 34.995 A 1.96 1.96 0 0 0 120.948 35.01 Q 121.436 35.498 122.119 35.498 A 1.68 1.68 0 0 0 123.316 35.01 A 1.66 1.66 0 0 0 123.7 34.473 A 1.566 1.566 0 0 0 123.828 33.838 Z M 360.205 33.838 A 1.631 1.631 0 0 0 359.725 32.675 A 2.141 2.141 0 0 0 359.693 32.642 A 1.787 1.787 0 0 0 359.165 32.27 A 1.606 1.606 0 0 0 358.496 32.129 Q 357.813 32.129 357.324 32.642 A 1.68 1.68 0 0 0 356.836 33.838 A 1.596 1.596 0 0 0 357.309 34.995 A 1.96 1.96 0 0 0 357.324 35.01 Q 357.813 35.498 358.496 35.498 A 1.68 1.68 0 0 0 359.693 35.01 A 1.66 1.66 0 0 0 360.077 34.473 A 1.566 1.566 0 0 0 360.205 33.838 Z M 237.696 48.487 L 239.844 48.487 A 12.051 12.051 0 0 0 239.842 48.302 Q 239.838 48.004 239.82 47.583 A 11.98 11.98 0 0 0 239.722 46.485 A 7.282 7.282 0 0 0 239.65 46.05 Q 239.61 45.847 239.56 45.671 A 3.959 3.959 0 0 0 239.527 45.557 A 1.843 1.843 0 0 0 239.48 45.424 Q 239.377 45.166 239.258 45.166 Q 239.112 45.166 238.892 45.532 A 7.997 7.997 0 0 0 238.724 45.828 Q 238.625 46.009 238.522 46.217 A 14.62 14.62 0 0 0 238.428 46.411 A 9.355 9.355 0 0 0 238.089 47.222 A 10.627 10.627 0 0 0 237.989 47.51 A 21.591 21.591 0 0 0 237.897 47.791 Q 237.777 48.167 237.706 48.447 A 7.114 7.114 0 0 0 237.696 48.487 Z M 375.684 48.487 L 377.832 48.487 A 12.051 12.051 0 0 0 377.831 48.302 Q 377.826 48.004 377.808 47.583 A 11.98 11.98 0 0 0 377.71 46.485 A 7.282 7.282 0 0 0 377.638 46.05 Q 377.598 45.847 377.549 45.671 A 3.959 3.959 0 0 0 377.515 45.557 A 1.843 1.843 0 0 0 377.468 45.424 Q 377.365 45.166 377.246 45.166 Q 377.1 45.166 376.88 45.532 A 7.997 7.997 0 0 0 376.712 45.828 Q 376.614 46.009 376.511 46.217 A 14.62 14.62 0 0 0 376.416 46.411 A 9.355 9.355 0 0 0 376.078 47.222 A 10.627 10.627 0 0 0 375.977 47.51 A 21.591 21.591 0 0 0 375.885 47.791 Q 375.766 48.167 375.694 48.447 A 7.114 7.114 0 0 0 375.684 48.487 Z" vector-effect="non-scaling-stroke"/></g></svg>