<svg width="152.857" height="36.548" viewBox="0 0 152.857 36.548" xmlns="http://www.w3.org/2000/svg"><g id="svgGroup" stroke-linecap="round" fill-rule="evenodd" font-size="9pt" stroke="#000" stroke-width="0.1mm" fill="#000" style="stroke:#000;stroke-width:0.1mm;fill:#000"><path d="M 105.352 7.573 Q 105.352 7.793 105.198 7.969 A 0.504 0.504 0 0 1 104.999 8.111 A 0.522 0.522 0 0 1 104.81 8.145 A 0.547 0.547 0 0 1 104.429 7.998 A 0.576 0.576 0 0 1 104.26 7.715 A 0.783 0.783 0 0 1 104.238 7.603 A 0.455 0.455 0 0 1 104.232 7.566 Q 104.214 7.453 104.172 7.046 A 3.899 3.899 0 0 0 104.111 6.659 Q 104.073 6.473 104.015 6.264 A 8.98 8.98 0 0 0 103.879 5.823 Q 103.638 5.098 103.14 4.27 A 5.422 5.422 0 0 0 102.348 3.261 A 6.854 6.854 0 0 0 101.77 2.739 A 6.205 6.205 0 0 0 100.783 2.095 Q 100.301 1.838 99.73 1.627 A 10.422 10.422 0 0 0 99.566 1.567 Q 98.443 1.173 96.916 1.11 A 14.405 14.405 0 0 0 96.328 1.099 A 11.861 11.861 0 0 0 93.044 1.573 A 13.198 13.198 0 0 0 92.937 1.604 A 14.808 14.808 0 0 0 89.663 3.025 Q 88.096 3.94 86.733 5.208 Q 85.371 6.475 84.368 7.998 Q 83.364 9.522 82.786 11.25 A 11.141 11.141 0 0 0 82.207 14.81 A 10.128 10.128 0 0 0 82.282 16.076 Q 82.364 16.727 82.536 17.284 A 5.65 5.65 0 0 0 82.661 17.644 A 5.642 5.642 0 0 0 83.233 18.76 A 4.557 4.557 0 0 0 83.921 19.57 Q 84.727 20.317 85.818 20.662 A 7.526 7.526 0 0 0 87.625 20.989 A 8.835 8.835 0 0 0 88.169 21.006 A 11.157 11.157 0 0 0 91.466 20.527 A 10.343 10.343 0 0 0 92.249 20.252 Q 94.146 19.497 95.764 18.215 Q 97.383 16.934 98.716 15.227 Q 100.049 13.521 101.104 11.631 A 21.778 21.778 0 0 1 101.189 10.644 Q 101.293 9.717 101.463 9.097 A 5.116 5.116 0 0 1 101.521 8.899 Q 101.768 8.121 102.219 7.984 A 0.692 0.692 0 0 1 102.422 7.954 A 0.688 0.688 0 0 1 102.941 8.181 A 0.933 0.933 0 0 1 102.986 8.232 A 0.982 0.982 0 0 1 103.184 8.655 A 1.41 1.41 0 0 1 103.213 8.95 Q 103.213 9.429 102.969 10.165 A 7.941 7.941 0 0 1 102.964 10.181 A 8.712 8.712 0 0 1 102.74 10.774 Q 102.604 11.1 102.428 11.462 A 17.608 17.608 0 0 1 102.202 11.909 A 21.57 21.57 0 0 0 102.164 12.81 A 26.452 26.452 0 0 0 102.158 13.389 A 32.333 32.333 0 0 0 102.182 14.601 A 42.107 42.107 0 0 0 102.253 15.923 A 44.166 44.166 0 0 0 102.415 17.713 A 53.333 53.333 0 0 0 102.554 18.853 Q 103.061 18.599 103.384 18.46 A 6.256 6.256 0 0 1 103.513 18.406 Q 103.858 18.267 104.019 18.215 Q 104.172 18.167 104.219 18.171 A 0.061 0.061 0 0 1 104.224 18.171 Q 104.253 18.176 104.276 18.178 A 0.297 0.297 0 0 0 104.297 18.179 A 0.559 0.559 0 0 1 104.685 18.333 A 0.509 0.509 0 0 1 104.852 18.688 A 0.697 0.697 0 0 1 104.854 18.735 A 0.518 0.518 0 0 1 104.751 19.05 A 0.547 0.547 0 0 1 104.497 19.239 A 0.673 0.673 0 0 1 104.473 19.248 A 0.287 0.287 0 0 1 104.458 19.254 Q 104.395 19.281 104.08 19.402 A 137.394 137.394 0 0 1 103.967 19.446 A 8.417 8.417 0 0 0 103.639 19.581 Q 103.3 19.728 102.85 19.95 A 29.911 29.911 0 0 0 102.7 20.024 A 42.312 42.312 0 0 1 102.817 21.621 A 29.85 29.85 0 0 1 102.861 23.247 A 24.243 24.243 0 0 1 102.692 26.161 A 21.468 21.468 0 0 1 102.583 26.939 A 12.942 12.942 0 0 1 102.215 28.59 A 9.758 9.758 0 0 1 101.668 30.029 A 6.091 6.091 0 0 1 100.846 31.323 A 5.11 5.11 0 0 1 99.976 32.146 A 3.922 3.922 0 0 1 98.254 32.861 A 5.287 5.287 0 0 1 97.383 32.93 A 3.852 3.852 0 0 1 96.412 32.811 A 3.411 3.411 0 0 1 95.977 32.666 A 3.347 3.347 0 0 1 94.863 31.934 A 3.316 3.316 0 0 1 94.152 30.864 A 3.794 3.794 0 0 1 94.131 30.813 A 3.647 3.647 0 0 1 93.88 29.719 A 4.346 4.346 0 0 1 93.867 29.385 A 6.532 6.532 0 0 1 94.241 27.217 Q 94.614 26.148 95.237 25.151 Q 95.859 24.155 96.665 23.269 A 20.934 20.934 0 0 1 98.214 21.73 A 19.267 19.267 0 0 1 98.32 21.636 A 19.512 19.512 0 0 1 99.374 20.771 A 16.349 16.349 0 0 1 99.998 20.317 A 16.932 16.932 0 0 1 100.695 19.86 Q 101.019 19.659 101.317 19.498 A 9.591 9.591 0 0 1 101.514 19.395 Q 101.323 17.93 101.206 16.516 A 45.843 45.843 0 0 1 101.068 14.104 A 41.781 41.781 0 0 1 101.06 13.77 A 21.79 21.79 0 0 1 99.186 16.341 A 18.913 18.913 0 0 1 98.254 17.358 A 18.89 18.89 0 0 1 96.084 19.258 A 16.352 16.352 0 0 1 95.054 19.966 A 14.276 14.276 0 0 1 92.175 21.373 A 13.062 13.062 0 0 1 91.619 21.555 A 12.11 12.11 0 0 1 88.328 22.088 A 11.382 11.382 0 0 1 88.11 22.09 Q 86.528 22.09 85.239 21.614 A 6.055 6.055 0 0 1 83.085 20.272 A 5.914 5.914 0 0 1 83.027 20.215 A 5.95 5.95 0 0 1 81.849 18.515 A 7.215 7.215 0 0 1 81.607 17.93 A 7.945 7.945 0 0 1 81.211 16.317 A 10.813 10.813 0 0 1 81.108 14.795 A 12.024 12.024 0 0 1 81.694 11.096 A 15.187 15.187 0 0 1 83.32 7.625 A 16.616 16.616 0 0 1 85.789 4.585 Q 87.217 3.193 88.909 2.175 A 16.059 16.059 0 0 1 92.483 0.579 A 13.015 13.015 0 0 1 96.328 0 A 13.931 13.931 0 0 1 97.86 0.08 Q 98.816 0.186 99.609 0.432 A 10.433 10.433 0 0 1 100.822 0.889 Q 101.453 1.174 101.967 1.525 A 6.522 6.522 0 0 1 101.975 1.531 A 7.895 7.895 0 0 1 102.882 2.249 A 6.064 6.064 0 0 1 103.557 2.981 A 10.958 10.958 0 0 1 104.071 3.698 Q 104.33 4.094 104.517 4.468 A 8.505 8.505 0 0 1 104.821 5.166 A 6.904 6.904 0 0 1 104.978 5.625 A 12.667 12.667 0 0 1 105.092 6.024 Q 105.145 6.222 105.185 6.4 A 6.799 6.799 0 0 1 105.227 6.607 A 11.224 11.224 0 0 1 105.272 6.856 Q 105.312 7.097 105.328 7.271 A 3.235 3.235 0 0 1 105.33 7.295 Q 105.35 7.534 105.351 7.568 A 0.109 0.109 0 0 1 105.352 7.573 Z M 33.204 17.393 A 9.428 9.428 0 0 0 34.072 16.216 A 0.534 0.534 0 0 0 34.098 16.168 A 0.431 0.431 0 0 0 34.131 16.069 A 0.745 0.745 0 0 0 34.146 15.923 A 0.532 0.532 0 0 0 34.107 15.721 A 0.613 0.613 0 0 0 33.999 15.549 A 0.469 0.469 0 0 0 33.782 15.407 A 0.593 0.593 0 0 0 33.604 15.381 A 0.614 0.614 0 0 0 33.325 15.447 A 0.472 0.472 0 0 0 33.12 15.645 Q 32.49 16.655 31.421 17.651 A 12.21 12.21 0 0 1 30.849 18.152 A 13.881 13.881 0 0 1 28.967 19.446 A 13.257 13.257 0 0 1 28.706 19.593 A 14.349 14.349 0 0 1 25.957 20.735 A 11.647 11.647 0 0 1 22.573 21.226 A 15.766 15.766 0 0 1 19.922 20.999 Q 18.589 20.772 17.366 20.295 Q 16.143 19.819 15.081 19.087 Q 14.019 18.355 13.228 17.351 A 7.328 7.328 0 0 1 12.977 17.014 A 7.912 7.912 0 0 1 11.99 15.059 A 7.763 7.763 0 0 1 11.669 13.783 A 9.849 9.849 0 0 1 11.543 12.173 A 10.624 10.624 0 0 1 11.577 11.311 A 8.856 8.856 0 0 1 12.092 8.936 A 10.072 10.072 0 0 1 13.565 6.262 A 10.606 10.606 0 0 1 15.711 4.175 Q 16.934 3.281 18.281 2.681 A 13.983 13.983 0 0 1 21.013 1.78 A 14.143 14.143 0 0 1 21.866 1.621 A 11.807 11.807 0 0 1 23.657 1.48 Q 25.327 1.48 26.799 1.846 Q 28.272 2.212 29.37 2.878 A 6.501 6.501 0 0 1 29.906 3.241 A 5.301 5.301 0 0 1 31.113 4.49 Q 31.758 5.435 31.758 6.577 Q 31.758 7.617 31.245 8.569 A 5.318 5.318 0 0 1 31.021 8.947 A 5.721 5.721 0 0 1 29.839 10.254 A 6.57 6.57 0 0 1 29.22 10.703 A 7.524 7.524 0 0 1 27.752 11.426 A 6.906 6.906 0 0 1 27.26 11.586 A 7.493 7.493 0 0 1 25.195 11.865 Q 24.463 11.865 23.731 11.711 A 4.84 4.84 0 0 1 23.594 11.681 A 4.256 4.256 0 0 1 22.398 11.199 A 2.961 2.961 0 0 1 21.423 10.269 A 2.218 2.218 0 0 1 21.115 9.514 A 3.093 3.093 0 0 1 21.05 8.862 A 3.097 3.097 0 0 1 21.062 8.588 A 2.558 2.558 0 0 1 21.218 7.896 Q 21.303 7.675 21.396 7.487 A 3.392 3.392 0 0 1 21.592 7.141 A 5.176 5.176 0 0 1 21.702 6.979 Q 21.771 6.881 21.837 6.799 A 2.352 2.352 0 0 1 21.973 6.643 A 9.567 9.567 0 0 1 22.022 6.592 Q 22.153 6.458 22.178 6.445 A 0.588 0.588 0 0 0 22.315 6.26 A 0.597 0.597 0 0 0 22.368 6.006 A 0.657 0.657 0 0 0 22.368 5.975 A 0.485 0.485 0 0 0 22.207 5.625 A 0.547 0.547 0 0 0 22.021 5.513 A 0.62 0.62 0 0 0 21.812 5.479 A 0.734 0.734 0 0 0 21.755 5.481 A 0.857 0.857 0 0 0 21.628 5.501 A 0.336 0.336 0 0 0 21.571 5.519 A 0.355 0.355 0 0 0 21.46 5.596 L 21.189 5.867 A 2.576 2.576 0 0 0 21.051 6.017 Q 20.961 6.122 20.867 6.252 A 5.707 5.707 0 0 0 20.676 6.533 A 4.071 4.071 0 0 0 20.641 6.59 Q 20.516 6.793 20.401 7.032 A 6.799 6.799 0 0 0 20.178 7.551 A 3.291 3.291 0 0 0 20.031 8.056 A 3.94 3.94 0 0 0 19.951 8.862 A 4.434 4.434 0 0 0 19.951 8.889 A 3.867 3.867 0 0 0 20.288 10.474 A 3.601 3.601 0 0 0 20.31 10.52 A 3.673 3.673 0 0 0 21.284 11.777 A 4.191 4.191 0 0 0 22.037 12.28 A 5.509 5.509 0 0 0 22.925 12.649 Q 23.906 12.964 25.181 12.964 A 9.686 9.686 0 0 0 25.329 12.963 A 8.553 8.553 0 0 0 28.162 12.451 A 9.23 9.23 0 0 0 28.632 12.264 A 7.916 7.916 0 0 0 30.608 11.06 A 6.602 6.602 0 0 0 32.256 9.016 A 5.281 5.281 0 0 0 32.857 6.563 Q 32.857 5.171 32.131 4.036 A 6.029 6.029 0 0 0 31.514 3.23 A 6.926 6.926 0 0 0 30.161 2.087 A 8.921 8.921 0 0 0 28.981 1.441 A 11.117 11.117 0 0 0 27.253 0.828 A 12.473 12.473 0 0 0 26.192 0.592 A 14.26 14.26 0 0 0 23.701 0.381 Q 21.987 0.381 20.347 0.776 A 14.606 14.606 0 0 0 17.227 1.912 A 13.627 13.627 0 0 0 14.502 3.706 A 12.186 12.186 0 0 0 12.349 6.072 A 11.011 11.011 0 0 0 10.935 8.921 A 9.809 9.809 0 0 0 10.859 9.162 A 10.415 10.415 0 0 0 10.43 12.173 A 11.395 11.395 0 0 0 10.499 13.446 A 9.045 9.045 0 0 0 10.92 15.366 A 10.031 10.031 0 0 0 10.999 15.589 A 8.85 8.85 0 0 0 12.275 17.93 Q 13.14 19.058 14.304 19.885 A 12.069 12.069 0 0 0 16.824 21.255 A 14.451 14.451 0 0 0 19.651 22.061 A 16.711 16.711 0 0 0 22.603 22.324 A 12.611 12.611 0 0 0 26.265 21.79 Q 28.037 21.255 29.539 20.383 Q 31.04 19.512 32.212 18.42 A 12.799 12.799 0 0 0 33.204 17.393 Z M 47.725 21.314 L 47.783 21.314 A 3.327 3.327 0 0 0 48.934 21.117 A 3.107 3.107 0 0 0 49.358 20.925 A 5.121 5.121 0 0 0 50.64 19.929 A 8.158 8.158 0 0 0 51.665 18.574 A 21.173 21.173 0 0 0 52.241 17.568 A 18.042 18.042 0 0 0 52.471 17.124 A 0.59 0.59 0 0 1 52.584 16.956 A 0.538 0.538 0 0 1 52.683 16.875 A 0.552 0.552 0 0 1 52.983 16.787 A 0.568 0.568 0 0 1 53.166 16.815 A 0.468 0.468 0 0 1 53.379 16.963 A 0.661 0.661 0 0 1 53.483 17.131 A 0.547 0.547 0 0 1 53.525 17.344 A 0.552 0.552 0 0 1 53.482 17.564 A 14.532 14.532 0 0 1 52.766 18.949 A 16.364 16.364 0 0 1 52.573 19.27 A 8.078 8.078 0 0 1 51.343 20.815 A 6.086 6.086 0 0 1 49.761 21.936 A 4.256 4.256 0 0 1 48.142 22.358 A 5.083 5.083 0 0 1 47.813 22.368 Q 47.036 22.368 46.304 22.127 A 3.497 3.497 0 0 1 45.015 21.372 A 2.257 2.257 0 0 1 44.766 21.146 A 1.931 1.931 0 0 1 44.663 21.028 A 2.946 2.946 0 0 1 44.546 20.872 Q 44.491 20.793 44.448 20.718 A 1.714 1.714 0 0 1 44.429 20.684 A 0.132 0.132 0 0 1 44.414 20.666 Q 44.399 20.645 44.399 20.625 Q 44.312 20.493 44.312 20.347 A 0.532 0.532 0 0 1 44.413 20.036 A 0.682 0.682 0 0 1 44.443 19.995 A 0.173 0.173 0 0 1 44.451 19.982 Q 44.462 19.964 44.473 19.959 A 0.096 0.096 0 0 0 44.487 19.949 Q 44.494 19.945 44.5 19.938 A 0.161 0.161 0 0 0 44.502 19.937 A 0.607 0.607 0 0 1 44.65 19.837 A 0.506 0.506 0 0 1 44.824 19.79 L 44.868 19.79 A 0.579 0.579 0 0 1 44.902 19.791 Q 44.934 19.793 44.955 19.799 A 0.092 0.092 0 0 1 44.971 19.805 Q 44.981 19.805 44.987 19.808 A 0.022 0.022 0 0 1 44.993 19.812 A 0.023 0.023 0 0 0 45.002 19.818 Q 45.006 19.819 45.01 19.819 A 0.052 0.052 0 0 0 45.015 19.819 Q 45.059 19.819 45.117 19.849 Q 45.127 19.858 45.137 19.862 A 0.031 0.031 0 0 0 45.147 19.863 Q 45.278 19.951 45.366 20.083 Q 45.469 20.259 45.601 20.405 A 1.315 1.315 0 0 0 45.782 20.556 A 1.59 1.59 0 0 0 45.879 20.618 A 0.689 0.689 0 0 0 46.182 20.711 A 0.842 0.842 0 0 0 46.245 20.713 A 1.311 1.311 0 0 0 46.746 20.61 A 1.718 1.718 0 0 0 46.978 20.493 A 2.026 2.026 0 0 0 47.404 20.147 A 2.641 2.641 0 0 0 47.637 19.863 Q 47.93 19.453 48.113 18.867 A 3.977 3.977 0 0 0 48.268 18.104 A 5.066 5.066 0 0 0 48.296 17.564 Q 48.296 17.036 48.186 16.663 Q 48.076 16.289 47.908 16.055 A 1.532 1.532 0 0 0 47.769 15.886 Q 47.689 15.804 47.605 15.746 A 0.852 0.852 0 0 0 47.549 15.711 A 0.918 0.918 0 0 0 47.397 15.639 Q 47.297 15.604 47.203 15.601 A 0.567 0.567 0 0 0 47.183 15.601 Q 46.787 15.601 46.384 16.011 Q 45.982 16.421 45.586 17.051 A 16.563 16.563 0 0 0 45.098 17.884 A 20.396 20.396 0 0 0 44.802 18.442 Q 44.414 19.204 44.019 19.922 A 425.377 425.377 0 0 1 43.984 22.24 A 367.826 367.826 0 0 1 43.938 24.448 Q 43.887 26.602 43.762 28.447 A 49.991 49.991 0 0 1 43.614 30.205 A 36.887 36.887 0 0 1 43.418 31.787 A 17.37 17.37 0 0 1 43.213 32.93 Q 43.091 33.493 42.94 33.977 A 9.249 9.249 0 0 1 42.817 34.343 Q 42.532 35.14 42.148 35.66 A 3.045 3.045 0 0 1 41.88 35.977 A 1.825 1.825 0 0 1 40.555 36.548 A 2.247 2.247 0 0 1 40.518 36.548 Q 40.269 36.548 39.946 36.445 Q 39.624 36.343 39.346 36.028 Q 39.067 35.713 38.877 35.127 A 3.255 3.255 0 0 1 38.769 34.677 Q 38.728 34.441 38.707 34.161 A 8.247 8.247 0 0 1 38.687 33.56 A 12.348 12.348 0 0 1 38.744 32.406 Q 38.801 31.807 38.912 31.138 A 22.915 22.915 0 0 1 38.994 30.674 A 29.539 29.539 0 0 1 39.472 28.573 A 36.51 36.51 0 0 1 39.866 27.195 Q 40.43 25.357 41.206 23.423 Q 41.983 21.489 42.92 19.658 Q 42.92 19.146 42.927 18.648 A 66.549 66.549 0 0 0 42.935 17.798 A 60.727 60.727 0 0 0 42.935 17.681 A 0.684 0.684 0 0 1 42.771 17.821 A 0.553 0.553 0 0 1 42.481 17.9 A 0.568 0.568 0 0 1 42.298 17.873 A 0.468 0.468 0 0 1 42.085 17.725 A 0.661 0.661 0 0 1 41.981 17.556 A 0.547 0.547 0 0 1 41.939 17.344 A 0.548 0.548 0 0 1 41.952 17.227 A 0.745 0.745 0 0 1 41.983 17.124 Q 42.334 16.318 42.524 15.593 A 20.399 20.399 0 0 0 42.654 15.074 Q 42.714 14.817 42.76 14.586 A 10.954 10.954 0 0 0 42.81 14.319 Q 42.898 13.809 42.917 13.495 A 3.202 3.202 0 0 0 42.92 13.447 A 261.683 261.683 0 0 0 42.923 13.372 Q 42.935 13.123 42.935 13.11 A 0.52 0.52 0 0 1 43.091 12.735 A 0.664 0.664 0 0 1 43.096 12.73 Q 43.257 12.568 43.491 12.568 A 0.533 0.533 0 0 1 43.872 12.722 Q 44.033 12.876 44.033 13.11 L 44.033 17.607 A 114.891 114.891 0 0 1 44.707 16.48 A 8.194 8.194 0 0 1 45.143 15.83 A 6.84 6.84 0 0 1 45.418 15.483 A 3.783 3.783 0 0 1 45.895 15.01 A 3.156 3.156 0 0 1 46.223 14.773 A 1.769 1.769 0 0 1 47.183 14.502 Q 47.681 14.502 48.091 14.736 A 2.187 2.187 0 0 1 48.755 15.327 A 2.535 2.535 0 0 1 48.794 15.381 A 2.798 2.798 0 0 1 49.112 15.97 A 3.54 3.54 0 0 1 49.241 16.355 A 4.41 4.41 0 0 1 49.385 17.246 A 5.16 5.16 0 0 1 49.395 17.564 Q 49.395 18.911 48.911 19.863 A 4.754 4.754 0 0 1 48.455 20.598 Q 48.136 21.016 47.75 21.296 A 2.992 2.992 0 0 1 47.725 21.314 Z M 53.613 19.717 L 53.628 20.405 A 21.771 21.771 0 0 1 53.881 19.887 A 28.269 28.269 0 0 1 54.17 19.329 Q 54.478 18.75 54.829 18.142 A 24.483 24.483 0 0 1 55.576 16.934 A 14.652 14.652 0 0 1 56.344 15.872 A 13.414 13.414 0 0 1 56.397 15.806 A 3.93 3.93 0 0 1 56.716 15.461 Q 56.892 15.295 57.068 15.177 A 2.029 2.029 0 0 1 57.253 15.066 A 2.237 2.237 0 0 1 57.596 14.919 Q 57.795 14.854 57.981 14.842 A 1.309 1.309 0 0 1 58.066 14.839 A 1.601 1.601 0 0 1 58.403 14.873 A 1.242 1.242 0 0 1 58.733 14.993 Q 59.019 15.147 59.202 15.41 A 1.858 1.858 0 0 1 59.412 15.814 A 2.279 2.279 0 0 1 59.48 16.025 A 2.747 2.747 0 0 1 59.566 16.537 A 3.31 3.31 0 0 1 59.575 16.787 A 4.646 4.646 0 0 1 59.569 17.02 Q 59.556 17.282 59.515 17.637 A 16.071 16.071 0 0 1 59.509 17.688 A 9.932 9.932 0 0 0 59.446 18.638 A 11.22 11.22 0 0 0 59.443 18.867 A 6.573 6.573 0 0 0 59.48 19.563 A 3.144 3.144 0 0 0 59.531 19.889 A 2.372 2.372 0 0 0 59.612 20.178 A 1.135 1.135 0 0 0 59.74 20.437 A 0.942 0.942 0 0 0 59.898 20.618 A 0.656 0.656 0 0 0 60.206 20.768 A 0.94 0.94 0 0 0 60.396 20.786 Q 60.747 20.786 61.099 20.588 A 3.03 3.03 0 0 0 61.522 20.298 A 3.847 3.847 0 0 0 61.787 20.061 A 6.665 6.665 0 0 0 62.345 19.441 A 7.46 7.46 0 0 0 62.432 19.329 Q 62.739 18.926 62.988 18.523 A 11.649 11.649 0 0 0 63.277 18.031 A 9.697 9.697 0 0 0 63.428 17.747 Q 63.609 17.392 63.724 17.149 A 11.899 11.899 0 0 0 63.735 17.124 Q 63.866 16.824 64.17 16.791 A 0.723 0.723 0 0 1 64.248 16.787 A 0.568 0.568 0 0 1 64.43 16.815 A 0.468 0.468 0 0 1 64.644 16.963 A 0.661 0.661 0 0 1 64.748 17.131 A 0.547 0.547 0 0 1 64.79 17.344 A 0.552 0.552 0 0 1 64.746 17.564 A 4.801 4.801 0 0 0 64.715 17.627 Q 64.651 17.761 64.519 18.047 A 6.969 6.969 0 0 1 64.376 18.338 Q 64.244 18.594 64.065 18.897 A 12.104 12.104 0 0 1 63.692 19.486 A 15.082 15.082 0 0 1 63.399 19.907 A 7.311 7.311 0 0 1 62.556 20.881 A 4.459 4.459 0 0 1 61.635 21.573 A 4.17 4.17 0 0 1 61.56 21.614 Q 61.025 21.899 60.44 21.899 A 2.605 2.605 0 0 1 60.007 21.866 Q 59.762 21.824 59.564 21.733 A 1.366 1.366 0 0 1 59.356 21.614 Q 58.945 21.328 58.718 20.889 A 3.002 3.002 0 0 1 58.46 20.172 A 3.561 3.561 0 0 1 58.411 19.907 A 7.26 7.26 0 0 1 58.331 18.981 A 6.597 6.597 0 0 1 58.33 18.853 A 7.193 7.193 0 0 1 58.339 18.509 A 8.77 8.77 0 0 1 58.352 18.289 A 22.365 22.365 0 0 1 58.403 17.695 A 43.216 43.216 0 0 0 58.431 17.412 A 35.294 35.294 0 0 0 58.455 17.146 Q 58.47 16.97 58.474 16.832 A 3.459 3.459 0 0 0 58.477 16.714 A 2.597 2.597 0 0 0 58.469 16.511 Q 58.454 16.318 58.407 16.2 A 0.41 0.41 0 0 0 58.352 16.099 A 0.515 0.515 0 0 0 58.271 16.014 Q 58.205 15.96 58.131 15.944 A 0.306 0.306 0 0 0 58.066 15.938 A 0.504 0.504 0 0 0 57.885 15.974 Q 57.722 16.037 57.532 16.209 A 3.817 3.817 0 0 0 57.273 16.467 Q 57.092 16.665 56.902 16.919 A 10.462 10.462 0 0 0 56.531 17.448 A 13.169 13.169 0 0 0 56.243 17.908 A 52.252 52.252 0 0 0 55.606 18.999 A 27.054 27.054 0 0 0 55.244 19.657 A 22.428 22.428 0 0 0 55.049 20.032 A 247.4 247.4 0 0 0 54.93 20.267 Q 54.771 20.581 54.655 20.812 A 83.183 83.183 0 0 0 54.639 20.845 A 4.044 4.044 0 0 1 54.465 21.159 Q 54.278 21.463 54.088 21.619 A 0.944 0.944 0 0 1 54.016 21.672 A 1.669 1.669 0 0 1 53.826 21.784 Q 53.623 21.885 53.452 21.885 A 0.913 0.913 0 0 1 53.142 21.834 Q 52.911 21.752 52.761 21.533 A 0.982 0.982 0 0 1 52.756 21.526 A 1.395 1.395 0 0 1 52.542 20.981 A 1.885 1.885 0 0 1 52.515 20.654 L 52.515 19.732 A 1951.011 1951.011 0 0 1 52.517 17.027 A 1686.185 1686.185 0 0 1 52.522 14.451 A 190.229 190.229 0 0 1 52.544 12.026 A 151.87 151.87 0 0 1 52.595 9.778 A 80.546 80.546 0 0 1 52.683 7.72 A 59.066 59.066 0 0 1 52.815 5.867 A 26.475 26.475 0 0 1 52.952 4.626 Q 53.084 3.652 53.276 2.878 A 8.891 8.891 0 0 1 53.496 2.127 Q 53.618 1.773 53.759 1.483 A 3.685 3.685 0 0 1 54.06 0.967 A 1.839 1.839 0 0 1 54.407 0.59 A 1.315 1.315 0 0 1 55.254 0.293 A 1.863 1.863 0 0 1 55.772 0.362 A 1.501 1.501 0 0 1 56.294 0.63 A 2.226 2.226 0 0 1 56.777 1.169 A 2.902 2.902 0 0 1 56.983 1.545 A 4.424 4.424 0 0 1 57.221 2.214 A 6.008 6.008 0 0 1 57.363 2.893 A 10.434 10.434 0 0 1 57.475 4.144 A 11.945 11.945 0 0 1 57.481 4.512 Q 57.481 6.24 57.166 7.903 A 24.907 24.907 0 0 1 56.323 11.148 A 28.56 28.56 0 0 1 55.093 14.231 A 52.741 52.741 0 0 1 53.613 17.153 L 53.613 17.783 L 53.613 18.516 L 53.613 19.204 L 53.613 19.717 Z M 130.093 17.863 A 18.198 18.198 0 0 0 130.225 17.593 A 1.419 1.419 0 0 0 130.235 17.565 Q 130.267 17.482 130.278 17.419 A 0.359 0.359 0 0 0 130.283 17.358 A 0.572 0.572 0 0 0 130.248 17.159 A 0.627 0.627 0 0 0 130.129 16.963 A 0.497 0.497 0 0 0 129.923 16.82 A 0.572 0.572 0 0 0 129.727 16.787 Q 129.566 16.787 129.434 16.868 A 0.532 0.532 0 0 0 129.357 16.925 A 0.561 0.561 0 0 0 129.229 17.095 A 17.688 17.688 0 0 1 129.131 17.294 Q 129.014 17.529 128.856 17.832 A 57.003 57.003 0 0 1 128.694 18.142 A 10.883 10.883 0 0 1 127.896 19.424 A 6.881 6.881 0 0 1 127.715 19.664 A 5.977 5.977 0 0 1 126.899 20.515 A 2.222 2.222 0 0 1 126.522 20.778 A 1.553 1.553 0 0 1 125.772 20.977 A 1.324 1.324 0 0 1 125.097 20.794 Q 124.652 20.536 124.292 19.915 A 6.209 6.209 0 0 1 123.899 19.09 Q 123.551 18.213 123.311 16.992 A 46.128 46.128 0 0 0 124.849 13.923 Q 125.566 12.349 126.094 10.767 A 25.589 25.589 0 0 0 126.929 7.625 Q 127.236 6.065 127.236 4.6 Q 127.236 3.858 127.179 3.26 A 8.295 8.295 0 0 0 127.09 2.593 A 7.249 7.249 0 0 0 127.014 2.22 Q 126.881 1.65 126.68 1.26 Q 126.416 0.747 126.028 0.52 A 1.621 1.621 0 0 0 125.743 0.389 A 1.768 1.768 0 0 0 125.156 0.293 A 1.396 1.396 0 0 0 124.47 0.47 A 1.772 1.772 0 0 0 124.058 0.791 A 3.178 3.178 0 0 0 123.898 0.968 Q 123.512 1.432 123.201 2.139 Q 123.002 2.59 122.833 3.12 A 14.037 14.037 0 0 0 122.556 4.116 A 22.576 22.576 0 0 0 122.427 4.688 A 25.92 25.92 0 0 0 122.109 6.504 A 33.39 33.39 0 0 0 121.853 9.082 Q 121.773 10.4 121.773 11.631 A 29.93 29.93 0 0 0 121.774 11.875 Q 121.777 12.248 121.789 12.666 A 52.351 52.351 0 0 0 121.824 13.579 A 26.605 26.605 0 0 0 121.838 13.855 A 29.316 29.316 0 0 0 122.022 15.842 A 20.71 20.71 0 0 0 122.439 18.128 A 10.879 10.879 0 0 0 122.687 18.998 A 8.535 8.535 0 0 0 123.149 20.127 A 5.313 5.313 0 0 0 123.522 20.762 A 4.072 4.072 0 0 0 124.219 21.548 A 2.197 2.197 0 0 0 124.852 21.932 A 2.376 2.376 0 0 0 125.728 22.09 Q 126.299 22.09 126.804 21.848 A 3.995 3.995 0 0 0 126.838 21.832 A 4.247 4.247 0 0 0 127.756 21.218 A 6.175 6.175 0 0 0 128.584 20.339 A 12.315 12.315 0 0 0 128.631 20.278 A 11.232 11.232 0 0 0 129.273 19.351 A 17.456 17.456 0 0 0 129.494 18.982 A 14.661 14.661 0 0 0 129.822 18.391 Q 129.973 18.103 130.093 17.863 Z M 142.383 1.567 L 130.488 21.929 Q 130.334 22.196 130.044 22.207 A 0.661 0.661 0 0 1 130.02 22.207 A 0.572 0.572 0 0 1 129.823 22.175 A 0.497 0.497 0 0 1 129.617 22.031 A 0.664 0.664 0 0 1 129.513 21.875 A 0.526 0.526 0 0 1 129.463 21.65 A 0.656 0.656 0 0 1 129.469 21.558 Q 129.476 21.508 129.491 21.467 A 0.349 0.349 0 0 1 129.507 21.431 A 2.604 2.604 0 0 1 129.56 21.329 A 2.108 2.108 0 0 1 129.595 21.27 L 141.504 0.879 A 0.507 0.507 0 0 1 141.716 0.674 A 0.679 0.679 0 0 1 141.845 0.621 A 0.514 0.514 0 0 1 141.987 0.601 A 0.568 0.568 0 0 1 142.17 0.629 A 0.468 0.468 0 0 1 142.383 0.776 A 0.661 0.661 0 0 1 142.487 0.945 A 0.547 0.547 0 0 1 142.529 1.157 A 0.471 0.471 0 0 1 142.515 1.27 Q 142.502 1.322 142.478 1.377 A 2.486 2.486 0 0 1 142.442 1.456 Q 142.425 1.492 142.408 1.523 A 1.089 1.089 0 0 1 142.383 1.567 Z M 72.85 16.104 A 7.851 7.851 0 0 0 72.935 15.63 A 11.041 11.041 0 0 1 73.204 15.619 A 8.918 8.918 0 0 1 73.455 15.615 L 73.901 15.615 Q 74.326 15.615 74.451 15.754 A 0.42 0.42 0 0 1 74.525 15.874 Q 74.575 15.995 74.575 16.172 A 6.259 6.259 0 0 1 74.558 16.633 A 7.428 7.428 0 0 1 74.429 17.556 A 7.343 7.343 0 0 0 74.282 19.014 A 4.131 4.131 0 0 0 74.312 19.52 A 3.209 3.209 0 0 0 74.487 20.252 A 3.249 3.249 0 0 0 74.645 20.608 A 2.576 2.576 0 0 0 75.037 21.174 Q 75.381 21.548 75.85 21.746 A 2.536 2.536 0 0 0 76.846 21.943 Q 77.695 21.943 78.406 21.489 A 5.887 5.887 0 0 0 79.688 20.376 Q 80.259 19.717 80.706 18.962 A 93.331 93.331 0 0 0 80.764 18.863 Q 80.969 18.517 81.149 18.204 A 55.497 55.497 0 0 0 81.489 17.607 A 0.535 0.535 0 0 0 81.529 17.499 A 0.631 0.631 0 0 0 81.548 17.344 A 0.532 0.532 0 0 0 81.509 17.142 A 0.613 0.613 0 0 0 81.401 16.97 A 0.469 0.469 0 0 0 81.165 16.823 A 0.661 0.661 0 0 0 80.991 16.802 A 0.565 0.565 0 0 0 80.713 16.875 A 0.518 0.518 0 0 0 80.508 17.08 Q 80.259 17.564 79.885 18.208 A 9.537 9.537 0 0 1 79.043 19.431 A 6.236 6.236 0 0 1 78.917 19.582 A 5.501 5.501 0 0 1 78.018 20.42 A 2.424 2.424 0 0 1 77.86 20.527 A 1.917 1.917 0 0 1 76.831 20.83 A 1.074 1.074 0 0 1 76.795 20.83 Q 76.696 20.826 76.587 20.805 A 1.836 1.836 0 0 1 76.377 20.75 A 1.13 1.13 0 0 1 76.15 20.647 A 1.394 1.394 0 0 1 75.908 20.464 A 1.199 1.199 0 0 1 75.893 20.449 Q 75.778 20.339 75.684 20.189 A 1.937 1.937 0 0 1 75.542 19.915 Q 75.449 19.697 75.415 19.406 A 3.129 3.129 0 0 1 75.396 19.043 A 6.515 6.515 0 0 1 75.44 18.296 A 22.21 22.21 0 0 1 75.542 17.527 A 27.215 27.215 0 0 0 75.556 17.43 A 24.784 24.784 0 0 0 75.645 16.773 A 6.547 6.547 0 0 0 75.664 16.591 A 5.709 5.709 0 0 0 75.689 16.069 Q 75.689 15.652 75.579 15.352 A 1.11 1.11 0 0 0 75.249 14.868 A 1.352 1.352 0 0 0 74.913 14.665 Q 74.71 14.578 74.458 14.538 A 3.049 3.049 0 0 0 73.975 14.502 A 14.199 14.199 0 0 0 73.749 14.504 A 16.388 16.388 0 0 0 73.513 14.509 Q 73.272 14.517 73.023 14.517 A 3.778 3.778 0 0 0 73.02 14.374 Q 73.011 14.131 72.971 13.828 A 4.561 4.561 0 0 0 72.97 13.816 A 4.134 4.134 0 0 0 72.803 13.074 Q 72.686 12.715 72.473 12.466 A 0.693 0.693 0 0 0 72.211 12.271 A 0.74 0.74 0 0 0 71.924 12.217 A 0.604 0.604 0 0 0 71.718 12.254 Q 71.615 12.291 71.512 12.365 A 1.337 1.337 0 0 0 71.338 12.517 A 3.134 3.134 0 0 0 71.126 12.758 A 3.735 3.735 0 0 0 70.811 13.228 A 4.932 4.932 0 0 0 70.796 13.253 A 4.502 4.502 0 0 0 70.437 14.063 Q 70.341 14.355 70.312 14.564 A 1.229 1.229 0 0 0 70.298 14.736 A 1.376 1.376 0 0 0 70.303 14.855 Q 70.325 15.108 70.444 15.264 A 0.849 0.849 0 0 0 70.818 15.542 A 1.476 1.476 0 0 0 70.935 15.582 A 1.646 1.646 0 0 0 71.309 15.645 A 10.046 10.046 0 0 0 71.342 15.646 A 9.196 9.196 0 0 0 71.821 15.659 Q 71.722 16.143 71.648 16.437 A 5.875 5.875 0 0 1 71.602 16.611 Q 71.536 16.842 71.486 16.974 A 1.414 1.414 0 0 1 71.455 17.051 A 4.33 4.33 0 0 1 71.447 17.07 Q 71.394 17.186 71.367 17.227 A 0.119 0.119 0 0 0 71.364 17.232 Q 71.346 17.263 71.34 17.313 A 0.425 0.425 0 0 0 71.338 17.358 A 0.522 0.522 0 0 0 71.372 17.548 A 0.504 0.504 0 0 0 71.514 17.747 A 0.727 0.727 0 0 0 71.592 17.807 A 0.54 0.54 0 0 0 71.895 17.9 A 0.723 0.723 0 0 0 71.973 17.896 Q 72.277 17.863 72.407 17.564 Q 72.422 17.549 72.481 17.388 A 5.398 5.398 0 0 0 72.493 17.353 Q 72.532 17.242 72.581 17.093 A 16.553 16.553 0 0 0 72.62 16.97 A 7.972 7.972 0 0 0 72.643 16.896 Q 72.713 16.666 72.788 16.37 A 6.573 6.573 0 0 0 72.85 16.104 Z M 114.246 16.104 A 7.851 7.851 0 0 0 114.331 15.63 A 11.041 11.041 0 0 1 114.6 15.619 A 8.918 8.918 0 0 1 114.851 15.615 L 115.298 15.615 Q 115.723 15.615 115.847 15.754 A 0.42 0.42 0 0 1 115.921 15.874 Q 115.972 15.995 115.972 16.172 A 6.259 6.259 0 0 1 115.954 16.633 A 7.428 7.428 0 0 1 115.825 17.556 A 7.343 7.343 0 0 0 115.679 19.014 A 4.131 4.131 0 0 0 115.709 19.52 A 3.209 3.209 0 0 0 115.884 20.252 A 3.249 3.249 0 0 0 116.041 20.608 A 2.576 2.576 0 0 0 116.433 21.174 Q 116.777 21.548 117.246 21.746 A 2.536 2.536 0 0 0 118.242 21.943 Q 119.092 21.943 119.802 21.489 A 5.887 5.887 0 0 0 121.084 20.376 Q 121.655 19.717 122.102 18.962 A 93.331 93.331 0 0 0 122.161 18.863 Q 122.365 18.517 122.546 18.204 A 55.497 55.497 0 0 0 122.886 17.607 A 0.535 0.535 0 0 0 122.926 17.499 A 0.631 0.631 0 0 0 122.944 17.344 A 0.532 0.532 0 0 0 122.905 17.142 A 0.613 0.613 0 0 0 122.798 16.97 A 0.469 0.469 0 0 0 122.561 16.823 A 0.661 0.661 0 0 0 122.388 16.802 A 0.565 0.565 0 0 0 122.109 16.875 A 0.518 0.518 0 0 0 121.904 17.08 Q 121.655 17.564 121.282 18.208 A 9.537 9.537 0 0 1 120.44 19.431 A 6.236 6.236 0 0 1 120.313 19.582 A 5.501 5.501 0 0 1 119.414 20.42 A 2.424 2.424 0 0 1 119.256 20.527 A 1.917 1.917 0 0 1 118.228 20.83 A 1.074 1.074 0 0 1 118.191 20.83 Q 118.092 20.826 117.983 20.805 A 1.836 1.836 0 0 1 117.774 20.75 A 1.13 1.13 0 0 1 117.546 20.647 A 1.394 1.394 0 0 1 117.305 20.464 A 1.199 1.199 0 0 1 117.289 20.449 Q 117.175 20.339 117.081 20.189 A 1.937 1.937 0 0 1 116.939 19.915 Q 116.846 19.697 116.812 19.406 A 3.129 3.129 0 0 1 116.792 19.043 A 6.515 6.515 0 0 1 116.836 18.296 A 22.21 22.21 0 0 1 116.939 17.527 A 27.215 27.215 0 0 0 116.953 17.43 A 24.784 24.784 0 0 0 117.041 16.773 A 6.547 6.547 0 0 0 117.06 16.591 A 5.709 5.709 0 0 0 117.085 16.069 Q 117.085 15.652 116.975 15.352 A 1.11 1.11 0 0 0 116.646 14.868 A 1.352 1.352 0 0 0 116.309 14.665 Q 116.107 14.578 115.854 14.538 A 3.049 3.049 0 0 0 115.371 14.502 A 14.199 14.199 0 0 0 115.146 14.504 A 16.388 16.388 0 0 0 114.91 14.509 Q 114.668 14.517 114.419 14.517 A 3.778 3.778 0 0 0 114.416 14.374 Q 114.407 14.131 114.368 13.828 A 4.561 4.561 0 0 0 114.366 13.816 A 4.134 4.134 0 0 0 114.199 13.074 Q 114.082 12.715 113.87 12.466 A 0.693 0.693 0 0 0 113.608 12.271 A 0.74 0.74 0 0 0 113.32 12.217 A 0.604 0.604 0 0 0 113.114 12.254 Q 113.011 12.291 112.908 12.365 A 1.337 1.337 0 0 0 112.734 12.517 A 3.134 3.134 0 0 0 112.523 12.758 A 3.735 3.735 0 0 0 112.207 13.228 A 4.932 4.932 0 0 0 112.193 13.253 A 4.502 4.502 0 0 0 111.834 14.063 Q 111.738 14.355 111.708 14.564 A 1.229 1.229 0 0 0 111.694 14.736 A 1.376 1.376 0 0 0 111.699 14.855 Q 111.721 15.108 111.841 15.264 A 0.849 0.849 0 0 0 112.214 15.542 A 1.476 1.476 0 0 0 112.331 15.582 A 1.646 1.646 0 0 0 112.705 15.645 A 10.046 10.046 0 0 0 112.738 15.646 A 9.196 9.196 0 0 0 113.218 15.659 Q 113.119 16.143 113.045 16.437 A 5.875 5.875 0 0 1 112.998 16.611 Q 112.932 16.842 112.883 16.974 A 1.414 1.414 0 0 1 112.852 17.051 A 4.33 4.33 0 0 1 112.843 17.07 Q 112.791 17.186 112.764 17.227 A 0.119 0.119 0 0 0 112.76 17.232 Q 112.742 17.263 112.737 17.313 A 0.425 0.425 0 0 0 112.734 17.358 A 0.522 0.522 0 0 0 112.768 17.548 A 0.504 0.504 0 0 0 112.91 17.747 A 0.727 0.727 0 0 0 112.989 17.807 A 0.54 0.54 0 0 0 113.291 17.9 A 0.723 0.723 0 0 0 113.369 17.896 Q 113.674 17.863 113.804 17.564 Q 113.818 17.549 113.877 17.388 A 5.398 5.398 0 0 0 113.89 17.353 Q 113.929 17.242 113.977 17.093 A 16.553 16.553 0 0 0 114.016 16.97 A 7.972 7.972 0 0 0 114.039 16.896 Q 114.109 16.666 114.185 16.37 A 6.573 6.573 0 0 0 114.246 16.104 Z M 7.841 17.748 A 0.552 0.552 0 0 0 7.969 17.607 A 0.648 0.648 0 0 0 8.002 17.556 A 0.511 0.511 0 0 0 8.071 17.3 Q 8.071 17.144 8.005 17.026 A 0.536 0.536 0 0 0 7.837 16.846 A 108.53 108.53 0 0 1 7.639 16.712 Q 7.043 16.309 6.577 15.982 A 227.154 227.154 0 0 0 6.057 15.617 A 173.127 173.127 0 0 0 5.581 15.286 A 640.773 640.773 0 0 0 5.14 14.98 A 534.478 534.478 0 0 0 4.724 14.692 A 26.08 26.08 0 0 0 4.52 14.553 A 29.425 29.425 0 0 0 3.875 14.128 A 73.222 73.222 0 0 0 3.41 13.834 A 90.689 90.689 0 0 0 2.908 13.521 A 56.909 56.909 0 0 0 2.758 13.428 Q 2.529 13.287 2.269 13.13 A 102.164 102.164 0 0 0 1.699 12.788 A 29.443 29.443 0 0 0 2.827 12.059 A 23.468 23.468 0 0 0 4.292 10.979 Q 5.435 10.064 6.24 9.316 Q 7.046 8.569 7.493 8.071 A 49.059 49.059 0 0 0 7.615 7.935 Q 7.875 7.643 7.963 7.533 A 0.762 0.762 0 0 0 7.998 7.485 Q 8.065 7.409 8.089 7.294 A 0.661 0.661 0 0 0 8.101 7.163 A 0.534 0.534 0 0 0 8.059 6.953 A 0.59 0.59 0 0 0 7.94 6.775 A 0.633 0.633 0 0 0 7.929 6.765 A 0.525 0.525 0 0 0 7.544 6.607 A 0.526 0.526 0 0 0 7.262 6.684 A 0.618 0.618 0 0 0 7.105 6.826 Q 7.092 6.839 6.911 7.043 A 171.294 171.294 0 0 0 6.856 7.105 Q 6.68 7.302 6.397 7.591 A 29.689 29.689 0 0 1 6.196 7.793 A 27.382 27.382 0 0 1 5.914 8.071 Q 5.764 8.217 5.597 8.376 A 50.396 50.396 0 0 1 5.171 8.774 A 22.869 22.869 0 0 1 4.532 9.344 A 29.425 29.425 0 0 1 3.816 9.939 A 25.005 25.005 0 0 1 3.406 10.262 A 28.985 28.985 0 0 1 2.183 11.155 Q 1.304 11.763 0.308 12.305 A 0.75 0.75 0 0 0 0.226 12.354 Q 0 12.512 0 12.788 Q 0 13.125 0.278 13.286 A 82.612 82.612 0 0 1 0.379 13.342 Q 1.08 13.734 1.633 14.063 A 34.174 34.174 0 0 1 2.066 14.323 A 28.007 28.007 0 0 1 2.732 14.744 A 93.118 93.118 0 0 1 2.858 14.826 A 84.294 84.294 0 0 1 3.706 15.388 A 88.296 88.296 0 0 1 4.188 15.714 A 104.483 104.483 0 0 1 4.695 16.062 A 134.414 134.414 0 0 1 5.233 16.436 A 165.326 165.326 0 0 1 5.808 16.838 A 71.986 71.986 0 0 0 5.979 16.958 Q 6.24 17.141 6.534 17.343 A 125.866 125.866 0 0 0 7.178 17.783 A 0.648 0.648 0 0 0 7.23 17.816 A 0.511 0.511 0 0 0 7.485 17.886 Q 7.617 17.886 7.756 17.805 A 0.714 0.714 0 0 0 7.841 17.748 Z M 144.81 17.454 A 0.582 0.582 0 0 0 144.888 17.607 A 0.535 0.535 0 0 0 144.978 17.716 A 0.677 0.677 0 0 0 145.1 17.805 A 0.661 0.661 0 0 0 145.212 17.857 A 0.478 0.478 0 0 0 145.371 17.886 A 0.495 0.495 0 0 0 145.525 17.861 A 0.582 0.582 0 0 0 145.679 17.783 Q 146.083 17.503 146.443 17.254 A 727.98 727.98 0 0 0 147.041 16.838 A 453.314 453.314 0 0 1 147.622 16.436 A 364.036 364.036 0 0 1 148.162 16.062 A 104.483 104.483 0 0 1 148.669 15.714 A 88.296 88.296 0 0 1 149.15 15.388 A 78.266 78.266 0 0 1 149.268 15.309 A 86.411 86.411 0 0 1 150.125 14.744 A 26.606 26.606 0 0 1 150.516 14.493 A 32.547 32.547 0 0 1 151.223 14.063 A 42.785 42.785 0 0 1 151.303 14.016 Q 151.584 13.85 151.901 13.668 A 72.287 72.287 0 0 1 152.578 13.286 Q 152.761 13.18 152.824 12.999 A 0.642 0.642 0 0 0 152.857 12.788 A 0.668 0.668 0 0 0 152.856 12.781 Q 152.854 12.567 152.714 12.425 A 0.657 0.657 0 0 0 152.549 12.305 A 22.691 22.691 0 0 1 150.681 11.155 A 29.675 29.675 0 0 1 150.193 10.813 A 25.417 25.417 0 0 1 149.041 9.939 A 29.425 29.425 0 0 1 148.325 9.344 A 22.869 22.869 0 0 1 147.686 8.774 A 51.753 51.753 0 0 1 147.327 8.439 Q 146.952 8.085 146.66 7.793 A 30.001 30.001 0 0 1 146.472 7.603 Q 146.276 7.403 146.13 7.246 A 9.061 9.061 0 0 1 146.001 7.105 A 169.791 169.791 0 0 0 145.945 7.042 Q 145.791 6.868 145.759 6.834 A 0.311 0.311 0 0 0 145.752 6.826 A 0.72 0.72 0 0 0 145.713 6.781 A 0.531 0.531 0 0 0 145.313 6.607 A 0.643 0.643 0 0 0 145.298 6.607 A 0.525 0.525 0 0 0 144.917 6.775 A 0.704 0.704 0 0 0 144.907 6.786 A 0.542 0.542 0 0 0 144.756 7.163 A 0.77 0.77 0 0 0 144.757 7.203 Q 144.761 7.272 144.777 7.331 A 0.392 0.392 0 0 0 144.858 7.485 Q 144.906 7.557 145.21 7.899 A 46.298 46.298 0 0 0 145.364 8.071 A 9.262 9.262 0 0 0 145.405 8.117 Q 145.703 8.444 146.148 8.874 A 32.464 32.464 0 0 0 146.616 9.316 A 25.148 25.148 0 0 0 146.944 9.615 Q 147.645 10.242 148.565 10.979 A 22.641 22.641 0 0 0 149.623 11.776 A 28.428 28.428 0 0 0 151.157 12.788 Q 150.77 13.019 150.436 13.222 A 64.884 64.884 0 0 0 149.949 13.521 A 90.689 90.689 0 0 0 149.447 13.834 A 73.222 73.222 0 0 0 148.982 14.128 A 31.213 31.213 0 0 0 148.761 14.271 A 27.717 27.717 0 0 0 148.132 14.692 A 534.478 534.478 0 0 0 147.717 14.98 A 640.773 640.773 0 0 0 147.275 15.286 A 173.127 173.127 0 0 0 146.799 15.617 A 227.154 227.154 0 0 0 146.279 15.982 Q 145.975 16.196 145.614 16.442 A 97.239 97.239 0 0 1 145.02 16.846 A 0.659 0.659 0 0 0 145.007 16.855 Q 144.876 16.949 144.822 17.087 A 0.583 0.583 0 0 0 144.785 17.3 A 0.495 0.495 0 0 0 144.81 17.454 Z M 65.493 20.039 Q 65.801 20.464 66.284 20.72 Q 66.731 20.957 67.366 20.975 A 3.723 3.723 0 0 0 67.471 20.977 A 2.578 2.578 0 0 0 68.473 20.783 A 2.476 2.476 0 0 0 68.774 20.632 A 4.218 4.218 0 0 0 69.69 19.9 A 4.874 4.874 0 0 0 69.844 19.732 A 7.155 7.155 0 0 0 70.636 18.614 A 7.97 7.97 0 0 0 70.708 18.486 Q 71.089 17.798 71.397 17.109 Q 71.47 16.948 71.602 16.868 Q 71.733 16.787 71.895 16.787 A 0.572 0.572 0 0 1 72.091 16.82 A 0.497 0.497 0 0 1 72.297 16.963 A 0.664 0.664 0 0 1 72.401 17.119 A 0.526 0.526 0 0 1 72.451 17.344 A 0.617 0.617 0 0 1 72.449 17.396 Q 72.447 17.422 72.442 17.445 A 0.314 0.314 0 0 1 72.437 17.468 A 0.551 0.551 0 0 1 72.418 17.521 A 0.75 0.75 0 0 1 72.393 17.578 A 15.788 15.788 0 0 1 71.676 18.979 Q 71.285 19.652 70.87 20.18 A 6.925 6.925 0 0 1 70.188 20.933 A 4.389 4.389 0 0 1 69 21.749 A 3.781 3.781 0 0 1 67.485 22.09 A 4.218 4.218 0 0 1 66.69 22.018 A 3.096 3.096 0 0 1 65.816 21.716 Q 65.112 21.343 64.658 20.75 A 4.075 4.075 0 0 1 63.984 19.409 Q 63.765 18.662 63.765 17.915 A 5.336 5.336 0 0 1 63.829 17.069 A 4.397 4.397 0 0 1 63.948 16.538 A 3.756 3.756 0 0 1 64.222 15.847 A 3.146 3.146 0 0 1 64.475 15.44 A 2.605 2.605 0 0 1 65.066 14.852 A 2.421 2.421 0 0 1 65.295 14.707 Q 65.772 14.443 66.343 14.443 A 1.691 1.691 0 0 1 66.978 14.57 A 1.937 1.937 0 0 1 67.009 14.583 A 1.913 1.913 0 0 1 67.603 14.978 A 1.913 1.913 0 0 1 67.974 15.489 A 2.241 2.241 0 0 1 68.027 15.601 A 1.879 1.879 0 0 1 68.166 16.098 A 2.424 2.424 0 0 1 68.189 16.436 A 3.118 3.118 0 0 1 68.034 17.422 A 2.938 2.938 0 0 1 67.983 17.564 A 3.793 3.793 0 0 1 67.42 18.545 A 4.692 4.692 0 0 1 66.744 19.235 A 5.351 5.351 0 0 1 66.563 19.38 A 6.291 6.291 0 0 1 65.493 20.039 Z M 35.859 14.531 A 33.63 33.63 0 0 0 35.596 18.735 A 6.054 6.054 0 0 0 35.608 19.118 A 5.12 5.12 0 0 0 35.764 20.105 A 3.778 3.778 0 0 0 35.88 20.469 A 3.072 3.072 0 0 0 36.277 21.211 Q 36.621 21.68 37.119 21.958 A 2.109 2.109 0 0 0 37.66 22.167 A 2.642 2.642 0 0 0 38.276 22.236 Q 38.789 22.236 39.287 21.987 A 4.035 4.035 0 0 0 39.541 21.849 A 4.555 4.555 0 0 0 40.239 21.336 A 6.701 6.701 0 0 0 40.324 21.259 A 7.316 7.316 0 0 0 41.096 20.427 A 13.744 13.744 0 0 0 41.836 19.409 Q 42.173 18.897 42.437 18.413 A 74.467 74.467 0 0 0 42.593 18.125 Q 42.667 17.989 42.732 17.866 A 36.155 36.155 0 0 0 42.876 17.593 A 0.383 0.383 0 0 0 42.878 17.589 Q 42.91 17.531 42.924 17.46 A 0.61 0.61 0 0 0 42.935 17.344 A 0.526 0.526 0 0 0 42.885 17.119 A 0.664 0.664 0 0 0 42.781 16.963 A 0.514 0.514 0 0 0 42.619 16.837 A 0.51 0.51 0 0 0 42.393 16.787 Q 42.232 16.787 42.1 16.868 A 0.532 0.532 0 0 0 42.023 16.925 A 0.561 0.561 0 0 0 41.895 17.095 A 21.365 21.365 0 0 1 41.523 17.805 A 17.123 17.123 0 0 1 40.972 18.743 A 14.104 14.104 0 0 1 40.942 18.789 Q 40.488 19.499 40.042 20.01 A 6.726 6.726 0 0 1 39.912 20.154 Q 39.719 20.362 39.529 20.529 A 3.677 3.677 0 0 1 39.141 20.83 A 2.361 2.361 0 0 1 39.078 20.871 Q 38.907 20.977 38.742 21.038 A 1.291 1.291 0 0 1 38.291 21.123 Q 38.042 21.123 37.771 21.035 Q 37.61 20.983 37.46 20.869 A 1.521 1.521 0 0 1 37.258 20.684 Q 37.105 20.517 36.988 20.265 A 2.768 2.768 0 0 1 36.863 19.944 Q 36.757 19.617 36.724 19.147 A 6.507 6.507 0 0 1 36.709 18.691 A 20.518 20.518 0 0 1 36.718 18.093 A 26.761 26.761 0 0 1 36.746 17.439 Q 36.782 16.758 36.834 16.15 Q 36.866 15.77 36.892 15.456 A 785.821 785.821 0 0 0 36.921 15.103 A 44.487 44.487 0 0 0 36.931 14.983 Q 36.952 14.723 36.957 14.621 A 1.077 1.077 0 0 0 36.958 14.575 A 0.574 0.574 0 0 0 36.812 14.187 Q 36.665 14.019 36.445 14.019 A 0.72 0.72 0 0 0 36.346 14.025 A 0.518 0.518 0 0 0 36.043 14.172 Q 35.889 14.326 35.859 14.531 Z M 106.773 14.531 A 33.63 33.63 0 0 0 106.509 18.735 A 6.054 6.054 0 0 0 106.521 19.118 A 5.12 5.12 0 0 0 106.677 20.105 A 3.778 3.778 0 0 0 106.793 20.469 A 3.072 3.072 0 0 0 107.19 21.211 Q 107.534 21.68 108.032 21.958 A 2.109 2.109 0 0 0 108.573 22.167 A 2.642 2.642 0 0 0 109.19 22.236 Q 109.702 22.236 110.2 21.987 A 4.035 4.035 0 0 0 110.454 21.849 A 4.555 4.555 0 0 0 111.152 21.336 A 6.701 6.701 0 0 0 111.237 21.259 A 7.316 7.316 0 0 0 112.009 20.427 A 13.744 13.744 0 0 0 112.749 19.409 Q 113.086 18.897 113.35 18.413 A 74.467 74.467 0 0 0 113.506 18.125 Q 113.58 17.989 113.645 17.866 A 36.155 36.155 0 0 0 113.789 17.593 A 0.383 0.383 0 0 0 113.791 17.589 Q 113.823 17.531 113.837 17.46 A 0.61 0.61 0 0 0 113.848 17.344 A 0.526 0.526 0 0 0 113.798 17.119 A 0.664 0.664 0 0 0 113.694 16.963 A 0.514 0.514 0 0 0 113.532 16.837 A 0.51 0.51 0 0 0 113.306 16.787 Q 113.145 16.787 113.013 16.868 A 0.532 0.532 0 0 0 112.936 16.925 A 0.561 0.561 0 0 0 112.808 17.095 A 21.365 21.365 0 0 1 112.436 17.805 A 17.123 17.123 0 0 1 111.885 18.743 A 14.104 14.104 0 0 1 111.855 18.789 Q 111.401 19.499 110.955 20.01 A 6.726 6.726 0 0 1 110.825 20.154 Q 110.632 20.362 110.443 20.529 A 3.677 3.677 0 0 1 110.054 20.83 A 2.361 2.361 0 0 1 109.991 20.871 Q 109.821 20.977 109.655 21.038 A 1.291 1.291 0 0 1 109.204 21.123 Q 108.955 21.123 108.684 21.035 Q 108.523 20.983 108.373 20.869 A 1.521 1.521 0 0 1 108.171 20.684 Q 108.019 20.517 107.901 20.265 A 2.768 2.768 0 0 1 107.776 19.944 Q 107.67 19.617 107.637 19.147 A 6.507 6.507 0 0 1 107.622 18.691 A 20.518 20.518 0 0 1 107.631 18.093 A 26.761 26.761 0 0 1 107.659 17.439 Q 107.695 16.758 107.747 16.15 Q 107.779 15.77 107.805 15.456 A 785.821 785.821 0 0 0 107.835 15.103 A 44.487 44.487 0 0 0 107.844 14.983 Q 107.865 14.723 107.87 14.621 A 1.077 1.077 0 0 0 107.871 14.575 A 0.574 0.574 0 0 0 107.725 14.187 Q 107.578 14.019 107.358 14.019 A 0.72 0.72 0 0 0 107.259 14.025 A 0.518 0.518 0 0 0 106.956 14.172 Q 106.802 14.326 106.773 14.531 Z M 122.886 11.704 A 36.599 36.599 0 0 0 122.911 13.069 A 32.44 32.44 0 0 0 122.93 13.506 A 41.32 41.32 0 0 0 123.012 14.761 A 36.309 36.309 0 0 0 123.047 15.161 A 31.91 31.91 0 0 0 123.937 13.295 A 36.11 36.11 0 0 0 124.219 12.634 Q 124.775 11.294 125.2 9.924 Q 125.625 8.555 125.881 7.2 A 14.769 14.769 0 0 0 126.107 5.475 A 12.465 12.465 0 0 0 126.138 4.614 Q 126.138 2.886 125.859 2.139 A 2.216 2.216 0 0 0 125.729 1.848 Q 125.544 1.51 125.295 1.423 A 0.545 0.545 0 0 0 125.112 1.392 A 0.496 0.496 0 0 0 124.847 1.473 Q 124.69 1.571 124.539 1.787 A 1.983 1.983 0 0 0 124.519 1.816 A 3.326 3.326 0 0 0 124.314 2.17 Q 124.142 2.51 123.984 2.974 A 11.493 11.493 0 0 0 123.775 3.665 Q 123.646 4.142 123.53 4.702 A 24.75 24.75 0 0 0 123.3 6.005 A 29.781 29.781 0 0 0 123.186 6.841 A 41.162 41.162 0 0 0 123.01 8.612 A 46.435 46.435 0 0 0 122.966 9.229 Q 122.886 10.474 122.886 11.704 Z M 101.646 20.61 A 14.738 14.738 0 0 0 100.716 21.179 A 18.174 18.174 0 0 0 100.129 21.585 A 17.065 17.065 0 0 0 98.606 22.822 Q 97.866 23.496 97.207 24.273 A 11.941 11.941 0 0 0 96.05 25.884 Q 95.552 26.719 95.266 27.605 Q 94.981 28.491 94.981 29.385 A 3.04 3.04 0 0 0 95.03 29.945 A 2.429 2.429 0 0 0 95.156 30.388 A 2.194 2.194 0 0 0 95.52 31.006 A 2.054 2.054 0 0 0 95.654 31.15 Q 95.977 31.465 96.416 31.641 A 2.474 2.474 0 0 0 97.125 31.805 A 2.98 2.98 0 0 0 97.383 31.816 A 3.261 3.261 0 0 0 100.013 30.533 A 5.455 5.455 0 0 0 100.606 29.627 Q 101.706 27.544 101.76 23.64 A 29.483 29.483 0 0 0 101.763 23.232 A 28.551 28.551 0 0 0 101.733 21.951 A 33.43 33.43 0 0 0 101.653 20.696 A 36.43 36.43 0 0 0 101.646 20.61 Z M 53.628 15 Q 54.243 13.652 54.749 12.371 A 26.7 26.7 0 0 0 55.613 9.815 A 22.169 22.169 0 0 0 56.177 7.229 A 17.434 17.434 0 0 0 56.379 4.851 A 19.408 19.408 0 0 0 56.382 4.497 A 7.544 7.544 0 0 0 56.381 4.363 Q 56.377 4.146 56.362 3.788 A 51.788 51.788 0 0 0 56.36 3.75 A 6.448 6.448 0 0 0 56.228 2.71 A 3.528 3.528 0 0 0 56.08 2.191 A 2.742 2.742 0 0 0 55.891 1.787 A 0.914 0.914 0 0 0 55.727 1.574 A 0.665 0.665 0 0 0 55.254 1.392 Q 54.932 1.392 54.697 1.824 Q 54.463 2.256 54.287 2.996 A 12.338 12.338 0 0 0 54.145 3.689 Q 54.081 4.046 54.028 4.446 A 21.4 21.4 0 0 0 53.994 4.717 A 38.069 38.069 0 0 0 53.854 6.122 A 44.71 44.71 0 0 0 53.804 6.797 A 64.682 64.682 0 0 0 53.694 9.053 A 124.26 124.26 0 0 0 53.645 11.165 A 113.395 113.395 0 0 0 53.643 11.301 A 169.096 169.096 0 0 0 53.632 12.358 A 137.814 137.814 0 0 0 53.628 13.345 L 53.628 15 Z M 42.891 22.266 A 45.178 45.178 0 0 0 41.594 25.503 A 42.387 42.387 0 0 0 40.853 27.78 A 36.463 36.463 0 0 0 40.613 28.638 A 33.615 33.615 0 0 0 40.218 30.275 A 26.599 26.599 0 0 0 39.99 31.465 A 18.49 18.49 0 0 0 39.848 32.483 Q 39.792 32.99 39.777 33.438 A 9.786 9.786 0 0 0 39.771 33.779 A 4.901 4.901 0 0 0 39.78 34.073 A 6.297 6.297 0 0 0 39.8 34.321 A 2.452 2.452 0 0 0 39.864 34.687 A 2.09 2.09 0 0 0 39.917 34.863 Q 40.005 35.112 40.166 35.281 A 0.538 0.538 0 0 0 40.501 35.444 A 0.748 0.748 0 0 0 40.591 35.449 A 0.765 0.765 0 0 0 41.087 35.262 Q 41.201 35.168 41.305 35.027 A 1.999 1.999 0 0 0 41.426 34.841 Q 41.777 34.233 42.019 33.201 Q 42.245 32.237 42.4 31.004 A 30.56 30.56 0 0 0 42.422 30.828 A 49.935 49.935 0 0 0 42.627 28.747 A 56.584 56.584 0 0 0 42.678 28.023 A 83.566 83.566 0 0 0 42.817 25.071 A 419.826 419.826 0 0 0 42.858 23.626 A 350.542 350.542 0 0 0 42.891 22.266 Z M 65.054 19.087 A 3.572 3.572 0 0 0 65.881 18.604 A 3.544 3.544 0 0 0 66.398 18.11 A 3.189 3.189 0 0 0 66.519 17.959 A 3.005 3.005 0 0 0 66.909 17.271 A 2.814 2.814 0 0 0 66.929 17.219 A 2.205 2.205 0 0 0 67.075 16.436 A 1.405 1.405 0 0 0 67.054 16.182 Q 67.028 16.041 66.971 15.931 A 0.679 0.679 0 0 0 66.856 15.769 Q 66.636 15.542 66.343 15.542 A 1.187 1.187 0 0 0 65.998 15.59 A 0.987 0.987 0 0 0 65.669 15.762 A 1.601 1.601 0 0 0 65.297 16.186 A 1.936 1.936 0 0 0 65.215 16.333 A 2.816 2.816 0 0 0 65.011 16.88 A 3.366 3.366 0 0 0 64.959 17.117 Q 64.878 17.549 64.878 17.974 A 3.047 3.047 0 0 0 64.901 18.341 A 3.658 3.658 0 0 0 64.929 18.53 A 6.03 6.03 0 0 0 65.019 18.953 A 5.324 5.324 0 0 0 65.054 19.087 Z M 37.826 10.766 A 1.313 1.313 0 0 0 37.969 10.151 A 1.5 1.5 0 0 0 37.969 10.13 A 1.312 1.312 0 0 0 37.866 9.631 A 1.329 1.329 0 0 0 37.581 9.207 A 1.329 1.329 0 0 0 37.156 8.921 A 1.264 1.264 0 0 0 37.087 8.894 A 1.332 1.332 0 0 0 36.636 8.818 A 1.5 1.5 0 0 0 36.614 8.819 A 1.312 1.312 0 0 0 36.116 8.921 A 1.329 1.329 0 0 0 35.691 9.207 A 1.329 1.329 0 0 0 35.405 9.631 A 1.264 1.264 0 0 0 35.379 9.7 A 1.332 1.332 0 0 0 35.303 10.151 A 1.585 1.585 0 0 0 35.303 10.169 A 1.284 1.284 0 0 0 35.691 11.096 A 1.341 1.341 0 0 0 36.022 11.341 A 1.313 1.313 0 0 0 36.636 11.484 A 1.585 1.585 0 0 0 36.653 11.484 A 1.284 1.284 0 0 0 37.581 11.096 A 1.341 1.341 0 0 0 37.826 10.766 Z M 108.739 10.766 A 1.313 1.313 0 0 0 108.882 10.151 A 1.5 1.5 0 0 0 108.882 10.13 A 1.312 1.312 0 0 0 108.779 9.631 A 1.329 1.329 0 0 0 108.494 9.207 A 1.329 1.329 0 0 0 108.069 8.921 A 1.264 1.264 0 0 0 108 8.894 A 1.332 1.332 0 0 0 107.549 8.818 A 1.5 1.5 0 0 0 107.527 8.819 A 1.312 1.312 0 0 0 107.029 8.921 A 1.329 1.329 0 0 0 106.604 9.207 A 1.329 1.329 0 0 0 106.318 9.631 A 1.264 1.264 0 0 0 106.292 9.7 A 1.332 1.332 0 0 0 106.216 10.151 A 1.585 1.585 0 0 0 106.216 10.169 A 1.284 1.284 0 0 0 106.604 11.096 A 1.341 1.341 0 0 0 106.935 11.341 A 1.313 1.313 0 0 0 107.549 11.484 A 1.585 1.585 0 0 0 107.566 11.484 A 1.284 1.284 0 0 0 108.494 11.096 A 1.341 1.341 0 0 0 108.739 10.766 Z M 37.149 10.151 A 0.489 0.489 0 0 0 37.004 9.803 A 0.643 0.643 0 0 0 36.995 9.793 A 0.536 0.536 0 0 0 36.836 9.681 A 0.482 0.482 0 0 0 36.636 9.639 A 0.466 0.466 0 0 0 36.294 9.783 A 0.597 0.597 0 0 0 36.284 9.793 A 0.504 0.504 0 0 0 36.138 10.151 A 0.479 0.479 0 0 0 36.28 10.498 A 0.589 0.589 0 0 0 36.284 10.503 A 0.479 0.479 0 0 0 36.629 10.649 A 0.573 0.573 0 0 0 36.636 10.649 A 0.504 0.504 0 0 0 36.995 10.503 Q 37.149 10.357 37.149 10.151 Z M 108.062 10.151 A 0.489 0.489 0 0 0 107.918 9.803 A 0.643 0.643 0 0 0 107.908 9.793 A 0.536 0.536 0 0 0 107.75 9.681 A 0.482 0.482 0 0 0 107.549 9.639 A 0.466 0.466 0 0 0 107.207 9.783 A 0.597 0.597 0 0 0 107.197 9.793 A 0.504 0.504 0 0 0 107.051 10.151 A 0.479 0.479 0 0 0 107.193 10.498 A 0.589 0.589 0 0 0 107.197 10.503 A 0.479 0.479 0 0 0 107.543 10.649 A 0.573 0.573 0 0 0 107.549 10.649 A 0.504 0.504 0 0 0 107.908 10.503 Q 108.062 10.357 108.062 10.151 Z M 71.309 14.546 L 71.953 14.546 Q 71.953 14.454 71.947 14.31 A 11.959 11.959 0 0 0 71.946 14.275 A 3.594 3.594 0 0 0 71.917 13.945 A 2.185 2.185 0 0 0 71.895 13.815 Q 71.883 13.754 71.868 13.701 A 1.187 1.187 0 0 0 71.858 13.667 Q 71.828 13.571 71.793 13.554 A 0.035 0.035 0 0 0 71.777 13.55 Q 71.733 13.55 71.668 13.66 A 2.399 2.399 0 0 0 71.617 13.748 Q 71.574 13.827 71.528 13.923 A 2.807 2.807 0 0 0 71.427 14.166 A 3.189 3.189 0 0 0 71.397 14.253 Q 71.341 14.42 71.312 14.534 A 2.126 2.126 0 0 0 71.309 14.546 Z M 112.705 14.546 L 113.35 14.546 Q 113.35 14.454 113.344 14.31 A 11.959 11.959 0 0 0 113.342 14.275 A 3.594 3.594 0 0 0 113.313 13.945 A 2.185 2.185 0 0 0 113.291 13.815 Q 113.279 13.754 113.265 13.701 A 1.187 1.187 0 0 0 113.254 13.667 Q 113.224 13.571 113.189 13.554 A 0.035 0.035 0 0 0 113.174 13.55 Q 113.13 13.55 113.064 13.66 A 2.399 2.399 0 0 0 113.014 13.748 Q 112.971 13.827 112.925 13.923 A 2.807 2.807 0 0 0 112.823 14.166 A 3.189 3.189 0 0 0 112.793 14.253 Q 112.737 14.42 112.708 14.534 A 2.126 2.126 0 0 0 112.705 14.546 Z" vector-effect="non-scaling-stroke"/></g></svg>